%TF.GenerationSoftware,KiCad,Pcbnew,9.0.2*%
%TF.CreationDate,2025-06-13T00:24:49+05:30*%
%TF.ProjectId,KeebPcb,4b656562-5063-4622-9e6b-696361645f70,rev?*%
%TF.SameCoordinates,Original*%
%TF.FileFunction,Legend,Top*%
%TF.FilePolarity,Positive*%
%FSLAX46Y46*%
G04 Gerber Fmt 4.6, Leading zero omitted, Abs format (unit mm)*
G04 Created by KiCad (PCBNEW 9.0.2) date 2025-06-13 00:24:49*
%MOMM*%
%LPD*%
G01*
G04 APERTURE LIST*
%ADD10C,0.150000*%
G04 APERTURE END LIST*
D10*
X115108033Y-96919280D02*
X115060414Y-96966900D01*
X115060414Y-96966900D02*
X114917557Y-97014519D01*
X114917557Y-97014519D02*
X114822319Y-97014519D01*
X114822319Y-97014519D02*
X114679462Y-96966900D01*
X114679462Y-96966900D02*
X114584224Y-96871661D01*
X114584224Y-96871661D02*
X114536605Y-96776423D01*
X114536605Y-96776423D02*
X114488986Y-96585947D01*
X114488986Y-96585947D02*
X114488986Y-96443090D01*
X114488986Y-96443090D02*
X114536605Y-96252614D01*
X114536605Y-96252614D02*
X114584224Y-96157376D01*
X114584224Y-96157376D02*
X114679462Y-96062138D01*
X114679462Y-96062138D02*
X114822319Y-96014519D01*
X114822319Y-96014519D02*
X114917557Y-96014519D01*
X114917557Y-96014519D02*
X115060414Y-96062138D01*
X115060414Y-96062138D02*
X115108033Y-96109757D01*
X115441367Y-96014519D02*
X116060414Y-96014519D01*
X116060414Y-96014519D02*
X115727081Y-96395471D01*
X115727081Y-96395471D02*
X115869938Y-96395471D01*
X115869938Y-96395471D02*
X115965176Y-96443090D01*
X115965176Y-96443090D02*
X116012795Y-96490709D01*
X116012795Y-96490709D02*
X116060414Y-96585947D01*
X116060414Y-96585947D02*
X116060414Y-96824042D01*
X116060414Y-96824042D02*
X116012795Y-96919280D01*
X116012795Y-96919280D02*
X115965176Y-96966900D01*
X115965176Y-96966900D02*
X115869938Y-97014519D01*
X115869938Y-97014519D02*
X115584224Y-97014519D01*
X115584224Y-97014519D02*
X115488986Y-96966900D01*
X115488986Y-96966900D02*
X115441367Y-96919280D01*
M02*
