%TF.GenerationSoftware,KiCad,Pcbnew,9.0.2*%
%TF.CreationDate,2025-06-13T00:24:49+05:30*%
%TF.ProjectId,KeebPcb,4b656562-5063-4622-9e6b-696361645f70,rev?*%
%TF.SameCoordinates,Original*%
%TF.FileFunction,Soldermask,Bot*%
%TF.FilePolarity,Negative*%
%FSLAX46Y46*%
G04 Gerber Fmt 4.6, Leading zero omitted, Abs format (unit mm)*
G04 Created by KiCad (PCBNEW 9.0.2) date 2025-06-13 00:24:49*
%MOMM*%
%LPD*%
G01*
G04 APERTURE LIST*
G04 Aperture macros list*
%AMRoundRect*
0 Rectangle with rounded corners*
0 $1 Rounding radius*
0 $2 $3 $4 $5 $6 $7 $8 $9 X,Y pos of 4 corners*
0 Add a 4 corners polygon primitive as box body*
4,1,4,$2,$3,$4,$5,$6,$7,$8,$9,$2,$3,0*
0 Add four circle primitives for the rounded corners*
1,1,$1+$1,$2,$3*
1,1,$1+$1,$4,$5*
1,1,$1+$1,$6,$7*
1,1,$1+$1,$8,$9*
0 Add four rect primitives between the rounded corners*
20,1,$1+$1,$2,$3,$4,$5,0*
20,1,$1+$1,$4,$5,$6,$7,0*
20,1,$1+$1,$6,$7,$8,$9,0*
20,1,$1+$1,$8,$9,$2,$3,0*%
%AMHorizOval*
0 Thick line with rounded ends*
0 $1 width*
0 $2 $3 position (X,Y) of the first rounded end (center of the circle)*
0 $4 $5 position (X,Y) of the second rounded end (center of the circle)*
0 Add line between two ends*
20,1,$1,$2,$3,$4,$5,0*
0 Add two circle primitives to create the rounded ends*
1,1,$1,$2,$3*
1,1,$1,$4,$5*%
G04 Aperture macros list end*
%ADD10C,1.750000*%
%ADD11C,3.987800*%
%ADD12HorizOval,2.250000X0.655001X0.730000X-0.655001X-0.730000X0*%
%ADD13C,2.250000*%
%ADD14HorizOval,2.250000X0.020000X0.290000X-0.020000X-0.290000X0*%
%ADD15RoundRect,0.250000X-0.450000X0.262500X-0.450000X-0.262500X0.450000X-0.262500X0.450000X0.262500X0*%
%ADD16RoundRect,0.225000X0.375000X-0.225000X0.375000X0.225000X-0.375000X0.225000X-0.375000X-0.225000X0*%
%ADD17RoundRect,0.250000X-0.625000X0.375000X-0.625000X-0.375000X0.625000X-0.375000X0.625000X0.375000X0*%
%ADD18RoundRect,0.250000X-0.475000X0.250000X-0.475000X-0.250000X0.475000X-0.250000X0.475000X0.250000X0*%
%ADD19R,1.800000X1.100000*%
%ADD20RoundRect,0.137500X-0.600000X-0.137500X0.600000X-0.137500X0.600000X0.137500X-0.600000X0.137500X0*%
%ADD21RoundRect,0.137500X-0.137500X-0.600000X0.137500X-0.600000X0.137500X0.600000X-0.137500X0.600000X0*%
%ADD22RoundRect,0.250000X0.475000X-0.250000X0.475000X0.250000X-0.475000X0.250000X-0.475000X-0.250000X0*%
%ADD23RoundRect,0.250000X0.250000X0.475000X-0.250000X0.475000X-0.250000X-0.475000X0.250000X-0.475000X0*%
%ADD24RoundRect,0.250000X0.450000X0.325000X-0.450000X0.325000X-0.450000X-0.325000X0.450000X-0.325000X0*%
%ADD25R,0.500000X2.250000*%
%ADD26O,1.700000X2.700000*%
%ADD27RoundRect,0.250000X-0.250000X-0.475000X0.250000X-0.475000X0.250000X0.475000X-0.250000X0.475000X0*%
G04 APERTURE END LIST*
D10*
%TO.C,MX1*%
X124293100Y-88925900D03*
D11*
X129373100Y-88925900D03*
D10*
X134453100Y-88925900D03*
D12*
X126218101Y-85655900D03*
D13*
X126873100Y-84925900D03*
D14*
X131893100Y-84135900D03*
D13*
X131913100Y-83845900D03*
%TD*%
D10*
%TO.C,MX3*%
X124293100Y-107974700D03*
D11*
X129373100Y-107974700D03*
D10*
X134453100Y-107974700D03*
D12*
X126218101Y-104704700D03*
D13*
X126873100Y-103974700D03*
D14*
X131893100Y-103184700D03*
D13*
X131913100Y-102894700D03*
%TD*%
D10*
%TO.C,MX2*%
X143341900Y-88925900D03*
D11*
X148421900Y-88925900D03*
D10*
X153501900Y-88925900D03*
D12*
X145266901Y-85655900D03*
D13*
X145921900Y-84925900D03*
D14*
X150941900Y-84135900D03*
D13*
X150961900Y-83845900D03*
%TD*%
D10*
%TO.C,MX4*%
X143341900Y-107974700D03*
D11*
X148421900Y-107974700D03*
D10*
X153501900Y-107974700D03*
D12*
X145266901Y-104704700D03*
D13*
X145921900Y-103974700D03*
D14*
X150941900Y-103184700D03*
D13*
X150961900Y-102894700D03*
%TD*%
D15*
%TO.C,R3*%
X78518000Y-92656800D03*
X78518000Y-94481800D03*
%TD*%
D16*
%TO.C,D2*%
X156240000Y-91275500D03*
X156240000Y-87975500D03*
%TD*%
D15*
%TO.C,R2*%
X81735700Y-92656800D03*
X81735700Y-94481800D03*
%TD*%
%TO.C,R1*%
X115071100Y-106625600D03*
X115071100Y-108450600D03*
%TD*%
D17*
%TO.C,F1*%
X73005000Y-99500000D03*
X73005000Y-102300000D03*
%TD*%
D18*
%TO.C,C6*%
X109689500Y-86708100D03*
X109689500Y-88608100D03*
%TD*%
D19*
%TO.C,SW1*%
X72286100Y-113674400D03*
X78486100Y-109974400D03*
X72286100Y-109974400D03*
X78486100Y-113674400D03*
%TD*%
D16*
%TO.C,D4*%
X156240000Y-109655800D03*
X156240000Y-106355800D03*
%TD*%
D20*
%TO.C,U1*%
X99325200Y-104369700D03*
X99325200Y-103569700D03*
X99325200Y-102769700D03*
X99325200Y-101969700D03*
X99325200Y-101169700D03*
X99325200Y-100369700D03*
X99325200Y-99569700D03*
X99325200Y-98769700D03*
X99325200Y-97969700D03*
X99325200Y-97169700D03*
X99325200Y-96369700D03*
D21*
X100987700Y-94707200D03*
X101787700Y-94707200D03*
X102587700Y-94707200D03*
X103387700Y-94707200D03*
X104187700Y-94707200D03*
X104987700Y-94707200D03*
X105787700Y-94707200D03*
X106587700Y-94707200D03*
X107387700Y-94707200D03*
X108187700Y-94707200D03*
X108987700Y-94707200D03*
D20*
X110650200Y-96369700D03*
X110650200Y-97169700D03*
X110650200Y-97969700D03*
X110650200Y-98769700D03*
X110650200Y-99569700D03*
X110650200Y-100369700D03*
X110650200Y-101169700D03*
X110650200Y-101969700D03*
X110650200Y-102769700D03*
X110650200Y-103569700D03*
X110650200Y-104369700D03*
D21*
X108987700Y-106032200D03*
X108187700Y-106032200D03*
X107387700Y-106032200D03*
X106587700Y-106032200D03*
X105787700Y-106032200D03*
X104987700Y-106032200D03*
X104187700Y-106032200D03*
X103387700Y-106032200D03*
X102587700Y-106032200D03*
X101787700Y-106032200D03*
X100987700Y-106032200D03*
%TD*%
D15*
%TO.C,R4*%
X89465800Y-89877900D03*
X89465800Y-91702900D03*
%TD*%
D22*
%TO.C,C3*%
X115274700Y-97509700D03*
X115274700Y-95609700D03*
%TD*%
%TO.C,C7*%
X100165100Y-88608100D03*
X100165100Y-86708100D03*
%TD*%
D16*
%TO.C,D3*%
X137191200Y-109655800D03*
X137191200Y-106355800D03*
%TD*%
D23*
%TO.C,C1*%
X93406000Y-98806000D03*
X91506000Y-98806000D03*
%TD*%
D16*
%TO.C,D1*%
X137191200Y-91338100D03*
X137191200Y-88038100D03*
%TD*%
D22*
%TO.C,C2*%
X93021800Y-91782900D03*
X93021800Y-89882900D03*
%TD*%
D24*
%TO.C,Y1*%
X105960700Y-88403700D03*
X103760700Y-88403700D03*
X103760700Y-86803700D03*
X105960700Y-86803700D03*
%TD*%
D25*
%TO.C,USB1*%
X81748300Y-85632300D03*
X80948300Y-85632300D03*
X80148300Y-85632300D03*
X79348300Y-85632300D03*
X78548300Y-85632300D03*
D26*
X83798300Y-81132300D03*
X76498300Y-81132300D03*
X83798300Y-85632300D03*
X76498300Y-85632300D03*
%TD*%
D27*
%TO.C,C5*%
X100354700Y-110402700D03*
X102254700Y-110402700D03*
%TD*%
D23*
%TO.C,C4*%
X109808700Y-110402700D03*
X107908700Y-110402700D03*
%TD*%
M02*
