M48
; DRILL file {KiCad 9.0.2} date 2025-06-13T00:24:53+0530
; FORMAT={-:-/ absolute / metric / decimal}
; #@! TF.CreationDate,2025-06-13T00:24:53+05:30
; #@! TF.GenerationSoftware,Kicad,Pcbnew,9.0.2
; #@! TF.FileFunction,Plated,1,2,PTH
FMAT,2
METRIC
; #@! TA.AperFunction,Plated,PTH,ViaDrill
T1C0.300
; #@! TA.AperFunction,Plated,PTH,ComponentDrill
T2C0.700
; #@! TA.AperFunction,Plated,PTH,ComponentDrill
T3C1.470
%
G90
G05
T1
X81.91Y-110.038
X87.466Y-91.783
X90.627Y-89.916
X97.485Y-99.466
X97.485Y-104.699
X98.552Y-108.153
X111.658Y-108.153
X117.094Y-97.536
T3
X125.563Y-86.386
X125.563Y-105.435
X126.873Y-84.926
X126.873Y-103.975
X131.873Y-84.426
X131.873Y-103.475
X131.913Y-83.846
X131.913Y-102.895
X144.612Y-86.386
X144.612Y-105.435
X145.922Y-84.926
X145.922Y-103.975
X150.922Y-84.426
X150.922Y-103.475
X150.962Y-83.846
X150.962Y-102.895
T2
G00X76.498Y-80.532
M15
G01X76.498Y-81.732
M16
G05
G00X76.498Y-85.032
M15
G01X76.498Y-86.232
M16
G05
G00X83.798Y-80.532
M15
G01X83.798Y-81.732
M16
G05
G00X83.798Y-85.032
M15
G01X83.798Y-86.232
M16
G05
M30
