%TF.GenerationSoftware,KiCad,Pcbnew,9.0.2*%
%TF.CreationDate,2025-06-13T00:24:49+05:30*%
%TF.ProjectId,KeebPcb,4b656562-5063-4622-9e6b-696361645f70,rev?*%
%TF.SameCoordinates,Original*%
%TF.FileFunction,Copper,L1,Top*%
%TF.FilePolarity,Positive*%
%FSLAX46Y46*%
G04 Gerber Fmt 4.6, Leading zero omitted, Abs format (unit mm)*
G04 Created by KiCad (PCBNEW 9.0.2) date 2025-06-13 00:24:49*
%MOMM*%
%LPD*%
G01*
G04 APERTURE LIST*
G04 Aperture macros list*
%AMHorizOval*
0 Thick line with rounded ends*
0 $1 width*
0 $2 $3 position (X,Y) of the first rounded end (center of the circle)*
0 $4 $5 position (X,Y) of the second rounded end (center of the circle)*
0 Add line between two ends*
20,1,$1,$2,$3,$4,$5,0*
0 Add two circle primitives to create the rounded ends*
1,1,$1,$2,$3*
1,1,$1,$4,$5*%
G04 Aperture macros list end*
%TA.AperFunction,ComponentPad*%
%ADD10HorizOval,2.250000X0.655001X0.730000X-0.655001X-0.730000X0*%
%TD*%
%TA.AperFunction,ComponentPad*%
%ADD11C,2.250000*%
%TD*%
%TA.AperFunction,ComponentPad*%
%ADD12HorizOval,2.250000X0.020000X0.290000X-0.020000X-0.290000X0*%
%TD*%
%TA.AperFunction,ComponentPad*%
%ADD13O,1.700000X2.700000*%
%TD*%
%TA.AperFunction,ViaPad*%
%ADD14C,0.600000*%
%TD*%
%TA.AperFunction,Conductor*%
%ADD15C,0.254000*%
%TD*%
G04 APERTURE END LIST*
D10*
%TO.P,MX1,1,COL*%
%TO.N,/COL0*%
X126218101Y-85655900D03*
D11*
X126873100Y-84925900D03*
D12*
%TO.P,MX1,2,ROW*%
%TO.N,Net-(D1-A)*%
X131893100Y-84135900D03*
D11*
X131913100Y-83845900D03*
%TD*%
D10*
%TO.P,MX3,1,COL*%
%TO.N,/COL0*%
X126218101Y-104704700D03*
D11*
X126873100Y-103974700D03*
D12*
%TO.P,MX3,2,ROW*%
%TO.N,Net-(D3-A)*%
X131893100Y-103184700D03*
D11*
X131913100Y-102894700D03*
%TD*%
D10*
%TO.P,MX2,1,COL*%
%TO.N,/COL1*%
X145266901Y-85655900D03*
D11*
X145921900Y-84925900D03*
D12*
%TO.P,MX2,2,ROW*%
%TO.N,Net-(D2-A)*%
X150941900Y-84135900D03*
D11*
X150961900Y-83845900D03*
%TD*%
D10*
%TO.P,MX4,1,COL*%
%TO.N,/COL1*%
X145266901Y-104704700D03*
D11*
X145921900Y-103974700D03*
D12*
%TO.P,MX4,2,ROW*%
%TO.N,Net-(D4-A)*%
X150941900Y-103184700D03*
D11*
X150961900Y-102894700D03*
%TD*%
D13*
%TO.P,USB1,6,SHIELD*%
%TO.N,unconnected-(USB1-SHIELD-Pad6)*%
X83798300Y-81132300D03*
X76498300Y-81132300D03*
X83798300Y-85632300D03*
X76498300Y-85632300D03*
%TD*%
D14*
%TO.N,+5V*%
X97485200Y-99466400D03*
X117094000Y-97536000D03*
X97485200Y-104698800D03*
X90627200Y-89916000D03*
X98552000Y-108153200D03*
X111658400Y-108153200D03*
%TO.N,Net-(U1-~{RESET})*%
X81910000Y-110038000D03*
X87465900Y-91782900D03*
%TD*%
D15*
%TO.N,+5V*%
X111658400Y-108153200D02*
X117906800Y-108153200D01*
X90627200Y-89916000D02*
X92354400Y-91643200D01*
X118059200Y-97536000D02*
X117094000Y-97536000D01*
X118160800Y-97536000D02*
X118110000Y-97485200D01*
X92354400Y-95910400D02*
X96520000Y-95910400D01*
X118160800Y-107899200D02*
X118160800Y-97536000D01*
X98552000Y-108153200D02*
X99161600Y-108153200D01*
X118110000Y-97485200D02*
X118059200Y-97536000D01*
X99161600Y-108153200D02*
X111658400Y-108153200D01*
X97485200Y-108153200D02*
X98552000Y-108153200D01*
X96520000Y-95910400D02*
X96570800Y-95961200D01*
X92354400Y-91643200D02*
X92354400Y-95910400D01*
X97485200Y-96875600D02*
X97485200Y-99466400D01*
X96570800Y-95961200D02*
X97485200Y-96875600D01*
X97485200Y-99466400D02*
X97485200Y-104698800D01*
X97485200Y-104698800D02*
X97485200Y-108153200D01*
X117906800Y-108153200D02*
X118160800Y-107899200D01*
%TO.N,/COL0*%
X125563100Y-86385900D02*
X125563100Y-105434700D01*
%TO.N,/COL1*%
X144611900Y-86385900D02*
X144611900Y-105434700D01*
%TO.N,Net-(U1-~{RESET})*%
X87465900Y-91782900D02*
X84291100Y-94957700D01*
X84291100Y-110038000D02*
X81910000Y-110038000D01*
X84291100Y-94957700D02*
X84291100Y-110038000D01*
%TD*%
M02*
