%TF.GenerationSoftware,KiCad,Pcbnew,9.0.2*%
%TF.CreationDate,2025-06-13T00:24:49+05:30*%
%TF.ProjectId,KeebPcb,4b656562-5063-4622-9e6b-696361645f70,rev?*%
%TF.SameCoordinates,Original*%
%TF.FileFunction,Copper,L2,Bot*%
%TF.FilePolarity,Positive*%
%FSLAX46Y46*%
G04 Gerber Fmt 4.6, Leading zero omitted, Abs format (unit mm)*
G04 Created by KiCad (PCBNEW 9.0.2) date 2025-06-13 00:24:49*
%MOMM*%
%LPD*%
G01*
G04 APERTURE LIST*
G04 Aperture macros list*
%AMRoundRect*
0 Rectangle with rounded corners*
0 $1 Rounding radius*
0 $2 $3 $4 $5 $6 $7 $8 $9 X,Y pos of 4 corners*
0 Add a 4 corners polygon primitive as box body*
4,1,4,$2,$3,$4,$5,$6,$7,$8,$9,$2,$3,0*
0 Add four circle primitives for the rounded corners*
1,1,$1+$1,$2,$3*
1,1,$1+$1,$4,$5*
1,1,$1+$1,$6,$7*
1,1,$1+$1,$8,$9*
0 Add four rect primitives between the rounded corners*
20,1,$1+$1,$2,$3,$4,$5,0*
20,1,$1+$1,$4,$5,$6,$7,0*
20,1,$1+$1,$6,$7,$8,$9,0*
20,1,$1+$1,$8,$9,$2,$3,0*%
%AMHorizOval*
0 Thick line with rounded ends*
0 $1 width*
0 $2 $3 position (X,Y) of the first rounded end (center of the circle)*
0 $4 $5 position (X,Y) of the second rounded end (center of the circle)*
0 Add line between two ends*
20,1,$1,$2,$3,$4,$5,0*
0 Add two circle primitives to create the rounded ends*
1,1,$1,$2,$3*
1,1,$1,$4,$5*%
G04 Aperture macros list end*
%TA.AperFunction,ComponentPad*%
%ADD10HorizOval,2.250000X0.655001X0.730000X-0.655001X-0.730000X0*%
%TD*%
%TA.AperFunction,ComponentPad*%
%ADD11C,2.250000*%
%TD*%
%TA.AperFunction,ComponentPad*%
%ADD12HorizOval,2.250000X0.020000X0.290000X-0.020000X-0.290000X0*%
%TD*%
%TA.AperFunction,SMDPad,CuDef*%
%ADD13RoundRect,0.250000X-0.450000X0.262500X-0.450000X-0.262500X0.450000X-0.262500X0.450000X0.262500X0*%
%TD*%
%TA.AperFunction,SMDPad,CuDef*%
%ADD14RoundRect,0.225000X0.375000X-0.225000X0.375000X0.225000X-0.375000X0.225000X-0.375000X-0.225000X0*%
%TD*%
%TA.AperFunction,SMDPad,CuDef*%
%ADD15RoundRect,0.250000X-0.625000X0.375000X-0.625000X-0.375000X0.625000X-0.375000X0.625000X0.375000X0*%
%TD*%
%TA.AperFunction,SMDPad,CuDef*%
%ADD16RoundRect,0.250000X-0.475000X0.250000X-0.475000X-0.250000X0.475000X-0.250000X0.475000X0.250000X0*%
%TD*%
%TA.AperFunction,SMDPad,CuDef*%
%ADD17R,1.800000X1.100000*%
%TD*%
%TA.AperFunction,SMDPad,CuDef*%
%ADD18RoundRect,0.137500X-0.600000X-0.137500X0.600000X-0.137500X0.600000X0.137500X-0.600000X0.137500X0*%
%TD*%
%TA.AperFunction,SMDPad,CuDef*%
%ADD19RoundRect,0.137500X-0.137500X-0.600000X0.137500X-0.600000X0.137500X0.600000X-0.137500X0.600000X0*%
%TD*%
%TA.AperFunction,SMDPad,CuDef*%
%ADD20RoundRect,0.250000X0.475000X-0.250000X0.475000X0.250000X-0.475000X0.250000X-0.475000X-0.250000X0*%
%TD*%
%TA.AperFunction,SMDPad,CuDef*%
%ADD21RoundRect,0.250000X0.250000X0.475000X-0.250000X0.475000X-0.250000X-0.475000X0.250000X-0.475000X0*%
%TD*%
%TA.AperFunction,SMDPad,CuDef*%
%ADD22RoundRect,0.250000X0.450000X0.325000X-0.450000X0.325000X-0.450000X-0.325000X0.450000X-0.325000X0*%
%TD*%
%TA.AperFunction,SMDPad,CuDef*%
%ADD23R,0.500000X2.250000*%
%TD*%
%TA.AperFunction,ComponentPad*%
%ADD24O,1.700000X2.700000*%
%TD*%
%TA.AperFunction,SMDPad,CuDef*%
%ADD25RoundRect,0.250000X-0.250000X-0.475000X0.250000X-0.475000X0.250000X0.475000X-0.250000X0.475000X0*%
%TD*%
%TA.AperFunction,ViaPad*%
%ADD26C,0.600000*%
%TD*%
%TA.AperFunction,Conductor*%
%ADD27C,0.254000*%
%TD*%
%TA.AperFunction,Conductor*%
%ADD28C,0.203200*%
%TD*%
%TA.AperFunction,Conductor*%
%ADD29C,0.200000*%
%TD*%
G04 APERTURE END LIST*
D10*
%TO.P,MX1,1,COL*%
%TO.N,/COL0*%
X126218101Y-85655900D03*
D11*
X126873100Y-84925900D03*
D12*
%TO.P,MX1,2,ROW*%
%TO.N,Net-(D1-A)*%
X131893100Y-84135900D03*
D11*
X131913100Y-83845900D03*
%TD*%
D10*
%TO.P,MX3,1,COL*%
%TO.N,/COL0*%
X126218101Y-104704700D03*
D11*
X126873100Y-103974700D03*
D12*
%TO.P,MX3,2,ROW*%
%TO.N,Net-(D3-A)*%
X131893100Y-103184700D03*
D11*
X131913100Y-102894700D03*
%TD*%
D10*
%TO.P,MX2,1,COL*%
%TO.N,/COL1*%
X145266901Y-85655900D03*
D11*
X145921900Y-84925900D03*
D12*
%TO.P,MX2,2,ROW*%
%TO.N,Net-(D2-A)*%
X150941900Y-84135900D03*
D11*
X150961900Y-83845900D03*
%TD*%
D10*
%TO.P,MX4,1,COL*%
%TO.N,/COL1*%
X145266901Y-104704700D03*
D11*
X145921900Y-103974700D03*
D12*
%TO.P,MX4,2,ROW*%
%TO.N,Net-(D4-A)*%
X150941900Y-103184700D03*
D11*
X150961900Y-102894700D03*
%TD*%
D13*
%TO.P,R3,1*%
%TO.N,/D-*%
X78518000Y-92656800D03*
%TO.P,R3,2*%
%TO.N,Net-(U1-D-)*%
X78518000Y-94481800D03*
%TD*%
D14*
%TO.P,D2,1,K*%
%TO.N,/ROW0*%
X156240000Y-91275500D03*
%TO.P,D2,2,A*%
%TO.N,Net-(D2-A)*%
X156240000Y-87975500D03*
%TD*%
D13*
%TO.P,R2,1*%
%TO.N,/D+*%
X81735700Y-92656800D03*
%TO.P,R2,2*%
%TO.N,Net-(U1-D+)*%
X81735700Y-94481800D03*
%TD*%
%TO.P,R1,1*%
%TO.N,Net-(U1-~{HWB}{slash}PE2)*%
X115071100Y-106625600D03*
%TO.P,R1,2*%
%TO.N,GND*%
X115071100Y-108450600D03*
%TD*%
D15*
%TO.P,F1,1*%
%TO.N,VCC*%
X73005000Y-99500000D03*
%TO.P,F1,2*%
%TO.N,+5V*%
X73005000Y-102300000D03*
%TD*%
D16*
%TO.P,C6,1*%
%TO.N,GND*%
X109689500Y-86708100D03*
%TO.P,C6,2*%
%TO.N,Net-(U1-XTAL1)*%
X109689500Y-88608100D03*
%TD*%
D17*
%TO.P,SW1,1,1*%
%TO.N,GND*%
X72286100Y-113674400D03*
%TO.P,SW1,2,2*%
%TO.N,Net-(U1-~{RESET})*%
X78486100Y-109974400D03*
%TO.P,SW1,3*%
%TO.N,N/C*%
X72286100Y-109974400D03*
%TO.P,SW1,4*%
X78486100Y-113674400D03*
%TD*%
D14*
%TO.P,D4,1,K*%
%TO.N,/ROW1*%
X156240000Y-109655800D03*
%TO.P,D4,2,A*%
%TO.N,Net-(D4-A)*%
X156240000Y-106355800D03*
%TD*%
D18*
%TO.P,U1,1,PE6*%
%TO.N,unconnected-(U1-PE6-Pad1)*%
X99325200Y-104369700D03*
%TO.P,U1,2,UVCC*%
%TO.N,+5V*%
X99325200Y-103569700D03*
%TO.P,U1,3,D-*%
%TO.N,Net-(U1-D-)*%
X99325200Y-102769700D03*
%TO.P,U1,4,D+*%
%TO.N,Net-(U1-D+)*%
X99325200Y-101969700D03*
%TO.P,U1,5,UGND*%
%TO.N,GND*%
X99325200Y-101169700D03*
%TO.P,U1,6,UCAP*%
%TO.N,Net-(U1-UCAP)*%
X99325200Y-100369700D03*
%TO.P,U1,7,VBUS*%
%TO.N,+5V*%
X99325200Y-99569700D03*
%TO.P,U1,8,PB0*%
%TO.N,unconnected-(U1-PB0-Pad8)*%
X99325200Y-98769700D03*
%TO.P,U1,9,PB1*%
%TO.N,unconnected-(U1-PB1-Pad9)*%
X99325200Y-97969700D03*
%TO.P,U1,10,PB2*%
%TO.N,unconnected-(U1-PB2-Pad10)*%
X99325200Y-97169700D03*
%TO.P,U1,11,PB3*%
%TO.N,unconnected-(U1-PB3-Pad11)*%
X99325200Y-96369700D03*
D19*
%TO.P,U1,12,PB7*%
%TO.N,unconnected-(U1-PB7-Pad12)*%
X100987700Y-94707200D03*
%TO.P,U1,13,~{RESET}*%
%TO.N,Net-(U1-~{RESET})*%
X101787700Y-94707200D03*
%TO.P,U1,14,VCC*%
%TO.N,+5V*%
X102587700Y-94707200D03*
%TO.P,U1,15,GND*%
%TO.N,GND*%
X103387700Y-94707200D03*
%TO.P,U1,16,XTAL2*%
%TO.N,Net-(U1-XTAL2)*%
X104187700Y-94707200D03*
%TO.P,U1,17,XTAL1*%
%TO.N,Net-(U1-XTAL1)*%
X104987700Y-94707200D03*
%TO.P,U1,18,PD0*%
%TO.N,unconnected-(U1-PD0-Pad18)*%
X105787700Y-94707200D03*
%TO.P,U1,19,PD1*%
%TO.N,unconnected-(U1-PD1-Pad19)*%
X106587700Y-94707200D03*
%TO.P,U1,20,PD2*%
%TO.N,unconnected-(U1-PD2-Pad20)*%
X107387700Y-94707200D03*
%TO.P,U1,21,PD3*%
%TO.N,unconnected-(U1-PD3-Pad21)*%
X108187700Y-94707200D03*
%TO.P,U1,22,PD5*%
%TO.N,unconnected-(U1-PD5-Pad22)*%
X108987700Y-94707200D03*
D18*
%TO.P,U1,23,GND*%
%TO.N,GND*%
X110650200Y-96369700D03*
%TO.P,U1,24,AVCC*%
%TO.N,+5V*%
X110650200Y-97169700D03*
%TO.P,U1,25,PD4*%
%TO.N,unconnected-(U1-PD4-Pad25)*%
X110650200Y-97969700D03*
%TO.P,U1,26,PD6*%
%TO.N,unconnected-(U1-PD6-Pad26)*%
X110650200Y-98769700D03*
%TO.P,U1,27,PD7*%
%TO.N,/ROW0*%
X110650200Y-99569700D03*
%TO.P,U1,28,PB4*%
%TO.N,/COL1*%
X110650200Y-100369700D03*
%TO.P,U1,29,PB5*%
%TO.N,/COL0*%
X110650200Y-101169700D03*
%TO.P,U1,30,PB6*%
%TO.N,/ROW1*%
X110650200Y-101969700D03*
%TO.P,U1,31,PC6*%
%TO.N,unconnected-(U1-PC6-Pad31)*%
X110650200Y-102769700D03*
%TO.P,U1,32,PC7*%
%TO.N,unconnected-(U1-PC7-Pad32)*%
X110650200Y-103569700D03*
%TO.P,U1,33,~{HWB}/PE2*%
%TO.N,Net-(U1-~{HWB}{slash}PE2)*%
X110650200Y-104369700D03*
D19*
%TO.P,U1,34,VCC*%
%TO.N,+5V*%
X108987700Y-106032200D03*
%TO.P,U1,35,GND*%
%TO.N,GND*%
X108187700Y-106032200D03*
%TO.P,U1,36,PF7*%
%TO.N,unconnected-(U1-PF7-Pad36)*%
X107387700Y-106032200D03*
%TO.P,U1,37,PF6*%
%TO.N,unconnected-(U1-PF6-Pad37)*%
X106587700Y-106032200D03*
%TO.P,U1,38,PF5*%
%TO.N,unconnected-(U1-PF5-Pad38)*%
X105787700Y-106032200D03*
%TO.P,U1,39,PF4*%
%TO.N,unconnected-(U1-PF4-Pad39)*%
X104987700Y-106032200D03*
%TO.P,U1,40,PF1*%
%TO.N,unconnected-(U1-PF1-Pad40)*%
X104187700Y-106032200D03*
%TO.P,U1,41,PF0*%
%TO.N,unconnected-(U1-PF0-Pad41)*%
X103387700Y-106032200D03*
%TO.P,U1,42,AREF*%
%TO.N,unconnected-(U1-AREF-Pad42)*%
X102587700Y-106032200D03*
%TO.P,U1,43,GND*%
%TO.N,GND*%
X101787700Y-106032200D03*
%TO.P,U1,44,AVCC*%
%TO.N,+5V*%
X100987700Y-106032200D03*
%TD*%
D13*
%TO.P,R4,1*%
%TO.N,+5V*%
X89465800Y-89877900D03*
%TO.P,R4,2*%
%TO.N,Net-(U1-~{RESET})*%
X89465800Y-91702900D03*
%TD*%
D20*
%TO.P,C3,1*%
%TO.N,+5V*%
X115274700Y-97509700D03*
%TO.P,C3,2*%
%TO.N,GND*%
X115274700Y-95609700D03*
%TD*%
%TO.P,C7,1*%
%TO.N,GND*%
X100165100Y-88608100D03*
%TO.P,C7,2*%
%TO.N,Net-(U1-XTAL2)*%
X100165100Y-86708100D03*
%TD*%
D14*
%TO.P,D3,1,K*%
%TO.N,/ROW1*%
X137191200Y-109655800D03*
%TO.P,D3,2,A*%
%TO.N,Net-(D3-A)*%
X137191200Y-106355800D03*
%TD*%
D21*
%TO.P,C1,1*%
%TO.N,Net-(U1-UCAP)*%
X93406000Y-98806000D03*
%TO.P,C1,2*%
%TO.N,GND*%
X91506000Y-98806000D03*
%TD*%
D14*
%TO.P,D1,1,K*%
%TO.N,/ROW0*%
X137191200Y-91338100D03*
%TO.P,D1,2,A*%
%TO.N,Net-(D1-A)*%
X137191200Y-88038100D03*
%TD*%
D20*
%TO.P,C2,1*%
%TO.N,+5V*%
X93021800Y-91782900D03*
%TO.P,C2,2*%
%TO.N,GND*%
X93021800Y-89882900D03*
%TD*%
D22*
%TO.P,Y1,1,1*%
%TO.N,Net-(U1-XTAL1)*%
X105960700Y-88403700D03*
%TO.P,Y1,2,2*%
%TO.N,GND*%
X103760700Y-88403700D03*
%TO.P,Y1,3,3*%
%TO.N,Net-(U1-XTAL2)*%
X103760700Y-86803700D03*
%TO.P,Y1,4,4*%
%TO.N,GND*%
X105960700Y-86803700D03*
%TD*%
D23*
%TO.P,USB1,1,GND*%
%TO.N,GND*%
X81748300Y-85632300D03*
%TO.P,USB1,2,ID*%
%TO.N,unconnected-(USB1-ID-Pad2)*%
X80948300Y-85632300D03*
%TO.P,USB1,3,D+*%
%TO.N,/D+*%
X80148300Y-85632300D03*
%TO.P,USB1,4,D-*%
%TO.N,/D-*%
X79348300Y-85632300D03*
%TO.P,USB1,5,VBUS*%
%TO.N,VCC*%
X78548300Y-85632300D03*
D24*
%TO.P,USB1,6,SHIELD*%
%TO.N,unconnected-(USB1-SHIELD-Pad6)*%
X83798300Y-81132300D03*
X76498300Y-81132300D03*
X83798300Y-85632300D03*
X76498300Y-85632300D03*
%TD*%
D25*
%TO.P,C5,1*%
%TO.N,+5V*%
X100354700Y-110402700D03*
%TO.P,C5,2*%
%TO.N,GND*%
X102254700Y-110402700D03*
%TD*%
D21*
%TO.P,C4,1*%
%TO.N,+5V*%
X109808700Y-110402700D03*
%TO.P,C4,2*%
%TO.N,GND*%
X107908700Y-110402700D03*
%TD*%
D26*
%TO.N,+5V*%
X97485200Y-99466400D03*
X117094000Y-97536000D03*
X97485200Y-104698800D03*
X90627200Y-89916000D03*
X98552000Y-108153200D03*
X111658400Y-108153200D03*
%TO.N,Net-(U1-~{RESET})*%
X81910000Y-110038000D03*
X87465900Y-91782900D03*
%TD*%
D27*
%TO.N,GND*%
X110650200Y-96369700D02*
X108736900Y-96369700D01*
X108187700Y-106032200D02*
X108187700Y-96918900D01*
X108187700Y-96918900D02*
X108736900Y-96369700D01*
X99325200Y-101169700D02*
X100062699Y-101169700D01*
X100062699Y-101169700D02*
X101787700Y-102894701D01*
X101787700Y-102894701D02*
X101787700Y-106032200D01*
X103387700Y-94707200D02*
X103387700Y-96037700D01*
X108736900Y-96369700D02*
X103719700Y-96369700D01*
X103719700Y-96369700D02*
X103387700Y-96037700D01*
X103387700Y-96037700D02*
X103387700Y-97844699D01*
X103387700Y-97844699D02*
X100062699Y-101169700D01*
%TO.N,Net-(U1-UCAP)*%
X93406000Y-98806000D02*
X94969700Y-100369700D01*
X94969700Y-100369700D02*
X99325200Y-100369700D01*
%TO.N,GND*%
X81748300Y-86675900D02*
X83362800Y-88290400D01*
X108187700Y-110123700D02*
X108187700Y-106032200D01*
X107908700Y-113019400D02*
X107923514Y-113004586D01*
X102254700Y-110402700D02*
X107908700Y-110402700D01*
X93021800Y-89882900D02*
X98890300Y-89882900D01*
X107908700Y-110402700D02*
X108187700Y-110123700D01*
X111410200Y-95609700D02*
X110650200Y-96369700D01*
X98577700Y-85433300D02*
X105721000Y-85433300D01*
X115037186Y-113004586D02*
X115071100Y-113038500D01*
X72286100Y-116288100D02*
X72385600Y-116387600D01*
X109689500Y-86708100D02*
X106056300Y-86708100D01*
X100165100Y-88608100D02*
X103387700Y-91830700D01*
X72385600Y-116387600D02*
X96269800Y-116387600D01*
X105960700Y-85673000D02*
X105960700Y-86803700D01*
X107908700Y-110402700D02*
X107908700Y-113019400D01*
X81748300Y-85632300D02*
X81748300Y-86675900D01*
D28*
X105960700Y-86803700D02*
X104360700Y-88403700D01*
D27*
X72286100Y-113674400D02*
X72286100Y-116288100D01*
X115071100Y-113038500D02*
X115071100Y-108450600D01*
X106056300Y-86708100D02*
X105960700Y-86803700D01*
X115274700Y-95609700D02*
X111410200Y-95609700D01*
X93869700Y-101169700D02*
X99325200Y-101169700D01*
X96269800Y-116387600D02*
X102254700Y-110402700D01*
X107923514Y-113004586D02*
X115037186Y-113004586D01*
X100165100Y-88608100D02*
X98577700Y-88608100D01*
X104360700Y-88403700D02*
X103760700Y-88403700D01*
X102254700Y-110402700D02*
X101787700Y-109935700D01*
X91506000Y-98806000D02*
X93869700Y-101169700D01*
X91429300Y-88290400D02*
X93021800Y-89882900D01*
X105721000Y-85433300D02*
X105960700Y-85673000D01*
X98890300Y-89882900D02*
X100165100Y-88608100D01*
X103387700Y-91830700D02*
X103387700Y-94707200D01*
X101787700Y-109935700D02*
X101787700Y-106032200D01*
X83362800Y-88290400D02*
X91429300Y-88290400D01*
%TO.N,+5V*%
X100354700Y-110402700D02*
X100354700Y-110337600D01*
X102587700Y-93969701D02*
X102587700Y-94707200D01*
X100354700Y-110402700D02*
X100354700Y-106665200D01*
X109808700Y-110402700D02*
X111658400Y-108553000D01*
X115274700Y-97509700D02*
X114934700Y-97169700D01*
X96196600Y-103569700D02*
X99325200Y-103569700D01*
X115301000Y-97536000D02*
X115274700Y-97509700D01*
X98614300Y-103569700D02*
X97485200Y-104698800D01*
X100400899Y-91782900D02*
X102587700Y-93969701D01*
X117094000Y-97536000D02*
X115301000Y-97536000D01*
X89465800Y-89877900D02*
X90589100Y-89877900D01*
X95402900Y-103688400D02*
X95521600Y-103569700D01*
X95767600Y-110402700D02*
X95402900Y-110038000D01*
X109808700Y-110402700D02*
X109808700Y-106853200D01*
X114934700Y-97169700D02*
X110650200Y-97169700D01*
X99325200Y-103569700D02*
X98614300Y-103569700D01*
X109808700Y-106853200D02*
X108987700Y-106032200D01*
X111658400Y-108553000D02*
X111658400Y-108153200D01*
X93021800Y-91782900D02*
X100400899Y-91782900D01*
X95521600Y-103569700D02*
X96196600Y-103569700D01*
X97588500Y-99569700D02*
X97485200Y-99466400D01*
X74274700Y-103569700D02*
X96196600Y-103569700D01*
X93021800Y-91782900D02*
X91370800Y-91782900D01*
X95402900Y-110038000D02*
X95402900Y-103688400D01*
X100354700Y-110402700D02*
X98552000Y-108600000D01*
X73005000Y-102300000D02*
X74274700Y-103569700D01*
X99325200Y-99569700D02*
X97588500Y-99569700D01*
X90589100Y-89877900D02*
X90627200Y-89916000D01*
X91370800Y-91782900D02*
X89465800Y-89877900D01*
X100354700Y-110402700D02*
X100293500Y-110402700D01*
X98552000Y-108600000D02*
X98552000Y-108153200D01*
X100354700Y-106665200D02*
X100987700Y-106032200D01*
X100354700Y-110402700D02*
X95767600Y-110402700D01*
%TO.N,Net-(U1-XTAL1)*%
X104987700Y-89376700D02*
X104987700Y-94707200D01*
X108691400Y-88403700D02*
X105960700Y-88403700D01*
X109689500Y-88608100D02*
X108895800Y-88608100D01*
X108895800Y-88608100D02*
X108691400Y-88403700D01*
X105960700Y-88403700D02*
X104987700Y-89376700D01*
%TO.N,Net-(U1-XTAL2)*%
X102931168Y-90730700D02*
X104187700Y-90730700D01*
X100165100Y-86708100D02*
X101271400Y-87814400D01*
X104187700Y-90730700D02*
X104187700Y-94707200D01*
X101752500Y-89552032D02*
X102931168Y-90730700D01*
X101752500Y-87814400D02*
X101752500Y-89552032D01*
X103665100Y-86708100D02*
X103760700Y-86803700D01*
X100165100Y-86708100D02*
X103665100Y-86708100D01*
X101271400Y-87814400D02*
X101752500Y-87814400D01*
%TO.N,Net-(D1-A)*%
X137191200Y-88038100D02*
X137191200Y-84867200D01*
X137191200Y-84867200D02*
X136749900Y-84425900D01*
X136749900Y-84425900D02*
X131873100Y-84425900D01*
%TO.N,/ROW0*%
X137160000Y-92456000D02*
X137191200Y-92424800D01*
X137191200Y-92424800D02*
X137191200Y-91338100D01*
X156210000Y-92837000D02*
X137160000Y-92837000D01*
X137160000Y-92837000D02*
X137160000Y-92456000D01*
X156240000Y-91275500D02*
X156240000Y-92807000D01*
X128959600Y-99569700D02*
X137191200Y-91338100D01*
X156240000Y-92807000D02*
X156210000Y-92837000D01*
X110650200Y-99569700D02*
X128959600Y-99569700D01*
%TO.N,Net-(D2-A)*%
X154910900Y-84425900D02*
X150921900Y-84425900D01*
X156240000Y-85755000D02*
X154910900Y-84425900D01*
X156240000Y-87975500D02*
X156240000Y-85755000D01*
%TO.N,Net-(D3-A)*%
X135732700Y-103474700D02*
X131873100Y-103474700D01*
X137191200Y-106355800D02*
X137191200Y-104933200D01*
X137191200Y-104933200D02*
X135732700Y-103474700D01*
%TO.N,/ROW1*%
X135036200Y-111810800D02*
X137191200Y-109655800D01*
X120040400Y-111810800D02*
X135036200Y-111810800D01*
X156240000Y-111730000D02*
X156210000Y-111760000D01*
X120040400Y-102209600D02*
X120040400Y-111810800D01*
X156240000Y-109655800D02*
X156240000Y-111730000D01*
X110650200Y-101969700D02*
X119800500Y-101969700D01*
X119800500Y-101969700D02*
X120040400Y-102209600D01*
X137287000Y-111760000D02*
X137191200Y-111664200D01*
X137191200Y-111664200D02*
X137191200Y-109655800D01*
X156210000Y-111760000D02*
X137287000Y-111760000D01*
%TO.N,Net-(D4-A)*%
X156240000Y-104551000D02*
X155163700Y-103474700D01*
X156240000Y-106355800D02*
X156240000Y-104551000D01*
X155163700Y-103474700D02*
X150921900Y-103474700D01*
%TO.N,VCC*%
X73005000Y-99500000D02*
X73005000Y-95925700D01*
X78548300Y-90382400D02*
X78548300Y-85632300D01*
X73005000Y-95925700D02*
X78548300Y-90382400D01*
%TO.N,/COL0*%
X110650200Y-101169700D02*
X124068100Y-101169700D01*
X124068100Y-101169700D02*
X126873100Y-103974700D01*
%TO.N,/COL1*%
X110650200Y-100369700D02*
X142316900Y-100369700D01*
X142316900Y-100369700D02*
X145921900Y-103974700D01*
%TO.N,Net-(U1-~{HWB}{slash}PE2)*%
X110650200Y-104369700D02*
X115133000Y-104369700D01*
X115245400Y-104482100D02*
X115071100Y-104656400D01*
X115071100Y-104656400D02*
X115071100Y-106625600D01*
X115133000Y-104369700D02*
X115245400Y-104482100D01*
%TO.N,Net-(U1-D+)*%
X84159800Y-101969700D02*
X99325200Y-101969700D01*
X81735700Y-99545600D02*
X84159800Y-101969700D01*
X81735700Y-94481800D02*
X81735700Y-99545600D01*
D29*
%TO.N,/D+*%
X80148300Y-91069400D02*
X81735700Y-92656800D01*
X80148300Y-85632300D02*
X80148300Y-91069400D01*
%TO.N,/D-*%
X79348300Y-91826500D02*
X78518000Y-92656800D01*
X79348300Y-85632300D02*
X79348300Y-91826500D01*
D27*
%TO.N,Net-(U1-D-)*%
X78518000Y-98709000D02*
X82703700Y-102894700D01*
X82703700Y-102894700D02*
X82828700Y-102769700D01*
X78518000Y-94481800D02*
X78518000Y-98709000D01*
X82828700Y-102769700D02*
X99325200Y-102769700D01*
%TO.N,Net-(U1-~{RESET})*%
X101188299Y-93370300D02*
X101787700Y-93969701D01*
X89465800Y-92989100D02*
X89847000Y-93370300D01*
X101787700Y-93969701D02*
X101787700Y-94707200D01*
X89847000Y-93370300D02*
X101188299Y-93370300D01*
X81910000Y-110038000D02*
X81846400Y-109974400D01*
X89465800Y-91702900D02*
X87545900Y-91702900D01*
X87545900Y-91702900D02*
X87465900Y-91782900D01*
X81846400Y-109974400D02*
X78486100Y-109974400D01*
X89465800Y-91702900D02*
X89465800Y-92989100D01*
%TO.N,GND*%
X98577700Y-88608100D02*
X98577700Y-85433300D01*
%TD*%
%TA.AperFunction,Conductor*%
%TO.N,GND*%
G36*
X75090839Y-80977085D02*
G01*
X75136594Y-81029889D01*
X75147800Y-81081400D01*
X75147800Y-81738586D01*
X75181053Y-81948539D01*
X75246744Y-82150714D01*
X75343251Y-82340120D01*
X75468190Y-82512086D01*
X75618513Y-82662409D01*
X75790479Y-82787348D01*
X75790481Y-82787349D01*
X75790484Y-82787351D01*
X75979888Y-82883857D01*
X76182057Y-82949546D01*
X76392013Y-82982800D01*
X76392014Y-82982800D01*
X76604586Y-82982800D01*
X76604587Y-82982800D01*
X76814543Y-82949546D01*
X77016712Y-82883857D01*
X77206116Y-82787351D01*
X77228089Y-82771386D01*
X77378086Y-82662409D01*
X77378088Y-82662406D01*
X77378092Y-82662404D01*
X77528404Y-82512092D01*
X77528406Y-82512088D01*
X77528409Y-82512086D01*
X77653348Y-82340120D01*
X77653347Y-82340120D01*
X77653351Y-82340116D01*
X77749857Y-82150712D01*
X77815546Y-81948543D01*
X77848800Y-81738587D01*
X77848800Y-81081400D01*
X77868485Y-81014361D01*
X77921289Y-80968606D01*
X77972800Y-80957400D01*
X82323800Y-80957400D01*
X82390839Y-80977085D01*
X82436594Y-81029889D01*
X82447800Y-81081400D01*
X82447800Y-81738586D01*
X82481053Y-81948539D01*
X82546744Y-82150714D01*
X82643251Y-82340120D01*
X82768190Y-82512086D01*
X82918513Y-82662409D01*
X83090479Y-82787348D01*
X83090481Y-82787349D01*
X83090484Y-82787351D01*
X83279888Y-82883857D01*
X83482057Y-82949546D01*
X83692013Y-82982800D01*
X83692014Y-82982800D01*
X83904586Y-82982800D01*
X83904587Y-82982800D01*
X84114543Y-82949546D01*
X84316712Y-82883857D01*
X84506116Y-82787351D01*
X84528089Y-82771386D01*
X84678086Y-82662409D01*
X84678088Y-82662406D01*
X84678092Y-82662404D01*
X84828404Y-82512092D01*
X84828406Y-82512088D01*
X84828409Y-82512086D01*
X84953348Y-82340120D01*
X84953347Y-82340120D01*
X84953351Y-82340116D01*
X85049857Y-82150712D01*
X85115546Y-81948543D01*
X85148800Y-81738587D01*
X85148800Y-81081400D01*
X85168485Y-81014361D01*
X85221289Y-80968606D01*
X85272800Y-80957400D01*
X118140086Y-80957400D01*
X118207125Y-80977085D01*
X118252880Y-81029889D01*
X118264054Y-81078583D01*
X118667163Y-98815383D01*
X118649007Y-98882852D01*
X118597256Y-98929795D01*
X118543195Y-98942200D01*
X112012200Y-98942200D01*
X111945161Y-98922515D01*
X111899406Y-98869711D01*
X111888200Y-98818200D01*
X111888199Y-98567777D01*
X111888198Y-98567752D01*
X111885354Y-98531602D01*
X111860052Y-98444514D01*
X111848367Y-98404293D01*
X111848367Y-98335106D01*
X111885354Y-98207798D01*
X111888200Y-98171635D01*
X111888199Y-97921198D01*
X111907883Y-97854161D01*
X111960687Y-97808406D01*
X112012199Y-97797200D01*
X113935945Y-97797200D01*
X114002984Y-97816885D01*
X114048739Y-97869689D01*
X114059303Y-97908601D01*
X114059700Y-97912495D01*
X114059701Y-97912499D01*
X114092633Y-98011880D01*
X114114886Y-98079034D01*
X114206988Y-98228356D01*
X114331044Y-98352412D01*
X114480366Y-98444514D01*
X114646903Y-98499699D01*
X114749691Y-98510200D01*
X115799708Y-98510199D01*
X115799716Y-98510198D01*
X115799719Y-98510198D01*
X115856002Y-98504448D01*
X115902497Y-98499699D01*
X116069034Y-98444514D01*
X116218356Y-98352412D01*
X116342412Y-98228356D01*
X116346086Y-98222398D01*
X116353670Y-98215577D01*
X116357909Y-98206297D01*
X116379208Y-98192608D01*
X116398033Y-98175678D01*
X116409667Y-98173034D01*
X116416687Y-98168523D01*
X116451622Y-98163500D01*
X116554643Y-98163500D01*
X116621682Y-98183185D01*
X116623534Y-98184398D01*
X116714814Y-98245390D01*
X116714827Y-98245397D01*
X116840489Y-98297447D01*
X116860503Y-98305737D01*
X117008140Y-98335104D01*
X117015153Y-98336499D01*
X117015156Y-98336500D01*
X117015158Y-98336500D01*
X117172844Y-98336500D01*
X117172845Y-98336499D01*
X117327497Y-98305737D01*
X117473179Y-98245394D01*
X117604289Y-98157789D01*
X117715789Y-98046289D01*
X117803394Y-97915179D01*
X117863737Y-97769497D01*
X117894500Y-97614842D01*
X117894500Y-97457158D01*
X117894500Y-97457155D01*
X117894499Y-97457153D01*
X117884682Y-97407799D01*
X117863737Y-97302503D01*
X117863735Y-97302498D01*
X117803397Y-97156827D01*
X117803390Y-97156814D01*
X117715789Y-97025711D01*
X117715786Y-97025707D01*
X117604292Y-96914213D01*
X117604288Y-96914210D01*
X117473185Y-96826609D01*
X117473172Y-96826602D01*
X117327501Y-96766264D01*
X117327489Y-96766261D01*
X117172845Y-96735500D01*
X117172842Y-96735500D01*
X117015158Y-96735500D01*
X117015155Y-96735500D01*
X116860510Y-96766261D01*
X116860498Y-96766264D01*
X116714827Y-96826602D01*
X116714814Y-96826609D01*
X116623534Y-96887602D01*
X116605487Y-96893252D01*
X116589578Y-96903477D01*
X116558618Y-96907928D01*
X116556857Y-96908480D01*
X116554643Y-96908500D01*
X116484066Y-96908500D01*
X116417027Y-96888815D01*
X116378527Y-96849596D01*
X116342412Y-96791044D01*
X116218357Y-96666989D01*
X116218356Y-96666988D01*
X116215042Y-96664943D01*
X116213246Y-96662948D01*
X116212689Y-96662507D01*
X116212764Y-96662411D01*
X116168318Y-96612997D01*
X116157097Y-96544034D01*
X116184940Y-96479952D01*
X116215048Y-96453865D01*
X116218042Y-96452018D01*
X116342015Y-96328045D01*
X116434056Y-96178824D01*
X116434058Y-96178819D01*
X116489205Y-96012397D01*
X116489206Y-96012390D01*
X116499699Y-95909686D01*
X116499700Y-95909673D01*
X116499700Y-95859700D01*
X114049701Y-95859700D01*
X114049701Y-95909686D01*
X114060194Y-96012397D01*
X114115341Y-96178819D01*
X114115343Y-96178824D01*
X114207384Y-96328045D01*
X114209858Y-96330519D01*
X114211013Y-96332635D01*
X114211861Y-96333707D01*
X114211677Y-96333851D01*
X114243343Y-96391842D01*
X114238359Y-96461534D01*
X114196487Y-96517467D01*
X114131023Y-96541884D01*
X114122177Y-96542200D01*
X111708915Y-96542200D01*
X111645795Y-96524932D01*
X111505596Y-96442020D01*
X111505589Y-96442017D01*
X111350802Y-96397046D01*
X111350796Y-96397045D01*
X111314642Y-96394200D01*
X109985777Y-96394200D01*
X109985752Y-96394201D01*
X109949601Y-96397046D01*
X109794810Y-96442017D01*
X109794803Y-96442020D01*
X109656063Y-96524069D01*
X109656055Y-96524075D01*
X109638247Y-96541884D01*
X109596748Y-96583382D01*
X109535428Y-96616866D01*
X109509069Y-96619700D01*
X109419025Y-96619700D01*
X109452293Y-96734210D01*
X109452292Y-96803399D01*
X109415046Y-96931597D01*
X109415045Y-96931603D01*
X109412200Y-96967757D01*
X109412200Y-97371622D01*
X109412201Y-97371647D01*
X109415046Y-97407798D01*
X109452032Y-97535104D01*
X109452032Y-97604294D01*
X109415046Y-97731597D01*
X109415045Y-97731603D01*
X109412200Y-97767757D01*
X109412200Y-98171622D01*
X109412201Y-98171647D01*
X109415046Y-98207798D01*
X109452032Y-98335104D01*
X109452032Y-98404294D01*
X109415046Y-98531597D01*
X109415045Y-98531603D01*
X109412200Y-98567757D01*
X109412200Y-98971622D01*
X109412201Y-98971631D01*
X109415046Y-99007798D01*
X109452032Y-99135104D01*
X109452032Y-99204294D01*
X109415046Y-99331597D01*
X109415045Y-99331603D01*
X109412200Y-99367757D01*
X109412200Y-99771622D01*
X109412201Y-99771647D01*
X109415046Y-99807798D01*
X109452032Y-99935104D01*
X109452032Y-100004294D01*
X109415046Y-100131597D01*
X109415045Y-100131603D01*
X109412200Y-100167757D01*
X109412200Y-100571622D01*
X109412201Y-100571647D01*
X109415046Y-100607798D01*
X109452032Y-100735104D01*
X109452032Y-100804294D01*
X109415046Y-100931597D01*
X109415045Y-100931603D01*
X109412200Y-100967757D01*
X109412200Y-101371622D01*
X109412201Y-101371647D01*
X109415046Y-101407798D01*
X109452032Y-101535104D01*
X109452032Y-101604294D01*
X109415046Y-101731597D01*
X109415045Y-101731603D01*
X109412200Y-101767757D01*
X109412200Y-102171622D01*
X109412201Y-102171647D01*
X109415046Y-102207798D01*
X109452032Y-102335104D01*
X109452032Y-102404294D01*
X109415046Y-102531597D01*
X109415045Y-102531603D01*
X109412200Y-102567757D01*
X109412200Y-102971622D01*
X109412201Y-102971647D01*
X109415046Y-103007798D01*
X109452032Y-103135104D01*
X109452032Y-103204294D01*
X109415046Y-103331597D01*
X109415045Y-103331603D01*
X109412200Y-103367757D01*
X109412200Y-103771622D01*
X109412201Y-103771647D01*
X109415046Y-103807798D01*
X109452032Y-103935104D01*
X109452032Y-104004294D01*
X109415046Y-104131597D01*
X109415045Y-104131603D01*
X109412200Y-104167757D01*
X109412200Y-104571622D01*
X109412201Y-104571647D01*
X109415045Y-104607795D01*
X109429615Y-104657944D01*
X109429415Y-104727813D01*
X109391472Y-104786483D01*
X109327834Y-104815326D01*
X109275943Y-104811614D01*
X109225802Y-104797046D01*
X109225796Y-104797045D01*
X109189635Y-104794200D01*
X108785777Y-104794200D01*
X108785752Y-104794201D01*
X108749601Y-104797046D01*
X108621400Y-104834292D01*
X108552210Y-104834292D01*
X108437701Y-104801023D01*
X108437700Y-104801024D01*
X108437700Y-104891068D01*
X108431270Y-104912962D01*
X108429387Y-104935706D01*
X108420649Y-104949134D01*
X108418015Y-104958107D01*
X108412125Y-104966491D01*
X108407157Y-104972973D01*
X108342074Y-105038057D01*
X108290645Y-105125018D01*
X108286125Y-105130918D01*
X108263679Y-105147329D01*
X108243363Y-105166299D01*
X108235872Y-105167661D01*
X108229724Y-105172157D01*
X108201970Y-105173828D01*
X108174622Y-105178803D01*
X108167582Y-105175899D01*
X108159980Y-105176357D01*
X108135731Y-105162759D01*
X108110032Y-105152158D01*
X108103612Y-105144748D01*
X108099038Y-105142184D01*
X108095306Y-105135163D01*
X108080968Y-105118616D01*
X108056939Y-105077985D01*
X108033326Y-105038057D01*
X108033324Y-105038055D01*
X108033321Y-105038051D01*
X107974019Y-104978749D01*
X107940534Y-104917426D01*
X107937700Y-104891068D01*
X107937700Y-104801024D01*
X107937698Y-104801023D01*
X107823189Y-104834292D01*
X107753999Y-104834292D01*
X107625802Y-104797046D01*
X107625796Y-104797045D01*
X107589635Y-104794200D01*
X107185777Y-104794200D01*
X107185752Y-104794201D01*
X107149601Y-104797046D01*
X107022295Y-104834032D01*
X106953105Y-104834032D01*
X106825802Y-104797046D01*
X106825796Y-104797045D01*
X106789635Y-104794200D01*
X106385777Y-104794200D01*
X106385752Y-104794201D01*
X106349601Y-104797046D01*
X106222295Y-104834032D01*
X106153105Y-104834032D01*
X106025802Y-104797046D01*
X106025796Y-104797045D01*
X105989635Y-104794200D01*
X105585777Y-104794200D01*
X105585752Y-104794201D01*
X105549601Y-104797046D01*
X105422295Y-104834032D01*
X105353105Y-104834032D01*
X105225802Y-104797046D01*
X105225796Y-104797045D01*
X105189635Y-104794200D01*
X104785777Y-104794200D01*
X104785752Y-104794201D01*
X104749601Y-104797046D01*
X104622295Y-104834032D01*
X104553105Y-104834032D01*
X104425802Y-104797046D01*
X104425796Y-104797045D01*
X104389635Y-104794200D01*
X103985777Y-104794200D01*
X103985752Y-104794201D01*
X103949601Y-104797046D01*
X103822295Y-104834032D01*
X103753105Y-104834032D01*
X103625802Y-104797046D01*
X103625796Y-104797045D01*
X103589635Y-104794200D01*
X103185777Y-104794200D01*
X103185752Y-104794201D01*
X103149601Y-104797046D01*
X103022295Y-104834032D01*
X102953105Y-104834032D01*
X102825802Y-104797046D01*
X102825796Y-104797045D01*
X102789635Y-104794200D01*
X102385777Y-104794200D01*
X102385752Y-104794201D01*
X102349601Y-104797046D01*
X102221400Y-104834292D01*
X102152210Y-104834292D01*
X102037701Y-104801023D01*
X102037700Y-104801024D01*
X102037700Y-104891068D01*
X102031270Y-104912962D01*
X102029387Y-104935706D01*
X102020649Y-104949134D01*
X102018015Y-104958107D01*
X102012125Y-104966491D01*
X102007157Y-104972973D01*
X101942074Y-105038057D01*
X101890645Y-105125018D01*
X101886125Y-105130918D01*
X101863679Y-105147329D01*
X101843363Y-105166299D01*
X101835872Y-105167661D01*
X101829724Y-105172157D01*
X101801970Y-105173828D01*
X101774622Y-105178803D01*
X101767582Y-105175899D01*
X101759980Y-105176357D01*
X101735731Y-105162759D01*
X101710032Y-105152158D01*
X101703612Y-105144748D01*
X101699038Y-105142184D01*
X101695306Y-105135163D01*
X101680968Y-105118616D01*
X101656939Y-105077985D01*
X101633326Y-105038057D01*
X101633324Y-105038055D01*
X101633321Y-105038051D01*
X101574019Y-104978749D01*
X101540534Y-104917426D01*
X101537700Y-104891068D01*
X101537700Y-104801024D01*
X101537698Y-104801023D01*
X101423189Y-104834292D01*
X101353999Y-104834292D01*
X101225802Y-104797046D01*
X101225796Y-104797045D01*
X101189635Y-104794200D01*
X100785777Y-104794200D01*
X100785752Y-104794201D01*
X100749604Y-104797045D01*
X100699455Y-104811615D01*
X100629585Y-104811415D01*
X100570916Y-104773472D01*
X100542073Y-104709833D01*
X100545785Y-104657944D01*
X100560354Y-104607798D01*
X100563200Y-104571635D01*
X100563199Y-104167766D01*
X100560354Y-104131602D01*
X100523367Y-104004293D01*
X100523367Y-103935106D01*
X100560354Y-103807798D01*
X100563200Y-103771635D01*
X100563199Y-103367766D01*
X100562573Y-103359814D01*
X100560354Y-103331602D01*
X100541791Y-103267710D01*
X100523367Y-103204293D01*
X100523367Y-103135106D01*
X100560354Y-103007798D01*
X100563200Y-102971635D01*
X100563199Y-102567766D01*
X100560354Y-102531602D01*
X100523367Y-102404293D01*
X100523367Y-102335106D01*
X100560354Y-102207798D01*
X100563200Y-102171635D01*
X100563199Y-101767766D01*
X100560354Y-101731602D01*
X100523107Y-101603398D01*
X100523107Y-101534208D01*
X100556374Y-101419700D01*
X100466331Y-101419700D01*
X100444436Y-101413270D01*
X100421693Y-101411387D01*
X100408263Y-101402649D01*
X100399292Y-101400015D01*
X100390908Y-101394125D01*
X100384429Y-101389160D01*
X100319343Y-101324074D01*
X100232376Y-101272642D01*
X100226481Y-101268125D01*
X100210071Y-101245681D01*
X100191100Y-101225364D01*
X100189737Y-101217871D01*
X100185242Y-101211724D01*
X100183570Y-101183970D01*
X100178596Y-101156622D01*
X100181499Y-101149582D01*
X100181042Y-101141980D01*
X100194640Y-101117729D01*
X100205241Y-101092033D01*
X100212649Y-101085613D01*
X100215215Y-101081038D01*
X100222236Y-101077305D01*
X100238780Y-101062969D01*
X100319343Y-101015326D01*
X100378651Y-100956017D01*
X100439972Y-100922534D01*
X100466331Y-100919700D01*
X100556375Y-100919700D01*
X100556374Y-100919699D01*
X100523107Y-100805190D01*
X100523107Y-100736001D01*
X100560354Y-100607798D01*
X100563200Y-100571635D01*
X100563199Y-100167766D01*
X100560354Y-100131602D01*
X100523367Y-100004293D01*
X100523367Y-99935106D01*
X100560354Y-99807798D01*
X100563200Y-99771635D01*
X100563199Y-99367766D01*
X100560354Y-99331602D01*
X100523367Y-99204293D01*
X100523367Y-99135106D01*
X100560354Y-99007798D01*
X100563200Y-98971635D01*
X100563199Y-98567766D01*
X100560354Y-98531602D01*
X100523367Y-98404293D01*
X100523367Y-98335106D01*
X100560354Y-98207798D01*
X100563200Y-98171635D01*
X100563199Y-97767766D01*
X100560354Y-97731602D01*
X100523367Y-97604293D01*
X100523367Y-97535106D01*
X100560354Y-97407798D01*
X100563200Y-97371635D01*
X100563199Y-96967766D01*
X100560354Y-96931602D01*
X100523367Y-96804293D01*
X100523367Y-96735106D01*
X100560354Y-96607798D01*
X100563200Y-96571635D01*
X100563199Y-96167766D01*
X100560354Y-96131602D01*
X100545785Y-96081455D01*
X100545984Y-96011587D01*
X100583926Y-95952917D01*
X100647564Y-95924073D01*
X100699455Y-95927784D01*
X100749602Y-95942354D01*
X100785765Y-95945200D01*
X101189634Y-95945199D01*
X101225798Y-95942354D01*
X101353106Y-95905367D01*
X101422294Y-95905367D01*
X101549602Y-95942354D01*
X101585765Y-95945200D01*
X101989634Y-95945199D01*
X102025798Y-95942354D01*
X102153106Y-95905367D01*
X102222294Y-95905367D01*
X102349602Y-95942354D01*
X102385765Y-95945200D01*
X102789634Y-95945199D01*
X102825798Y-95942354D01*
X102954001Y-95905107D01*
X103023190Y-95905107D01*
X103137699Y-95938374D01*
X103137700Y-95938374D01*
X103137700Y-95848331D01*
X103144129Y-95826436D01*
X103146013Y-95803693D01*
X103154750Y-95790263D01*
X103157385Y-95781292D01*
X103163275Y-95772908D01*
X103168239Y-95766429D01*
X103233326Y-95701343D01*
X103284757Y-95614376D01*
X103289275Y-95608481D01*
X103311718Y-95592071D01*
X103332036Y-95573100D01*
X103339528Y-95571737D01*
X103345676Y-95567242D01*
X103373429Y-95565570D01*
X103400778Y-95560596D01*
X103407817Y-95563499D01*
X103415420Y-95563042D01*
X103439670Y-95576640D01*
X103465367Y-95587241D01*
X103471786Y-95594649D01*
X103476362Y-95597215D01*
X103480094Y-95604236D01*
X103494430Y-95620780D01*
X103542074Y-95701343D01*
X103601382Y-95760651D01*
X103634866Y-95821972D01*
X103637700Y-95848331D01*
X103637700Y-95938374D01*
X103752208Y-95905107D01*
X103821398Y-95905107D01*
X103949597Y-95942353D01*
X103949600Y-95942353D01*
X103949602Y-95942354D01*
X103985765Y-95945200D01*
X104389634Y-95945199D01*
X104425798Y-95942354D01*
X104553106Y-95905367D01*
X104622294Y-95905367D01*
X104749602Y-95942354D01*
X104785765Y-95945200D01*
X105189634Y-95945199D01*
X105225798Y-95942354D01*
X105353106Y-95905367D01*
X105422294Y-95905367D01*
X105549602Y-95942354D01*
X105585765Y-95945200D01*
X105989634Y-95945199D01*
X106025798Y-95942354D01*
X106153106Y-95905367D01*
X106222294Y-95905367D01*
X106349602Y-95942354D01*
X106385765Y-95945200D01*
X106789634Y-95945199D01*
X106825798Y-95942354D01*
X106953106Y-95905367D01*
X107022294Y-95905367D01*
X107149602Y-95942354D01*
X107185765Y-95945200D01*
X107589634Y-95945199D01*
X107625798Y-95942354D01*
X107753106Y-95905367D01*
X107822294Y-95905367D01*
X107949602Y-95942354D01*
X107985765Y-95945200D01*
X108389634Y-95945199D01*
X108425798Y-95942354D01*
X108553106Y-95905367D01*
X108622294Y-95905367D01*
X108749602Y-95942354D01*
X108785765Y-95945200D01*
X109189634Y-95945199D01*
X109225798Y-95942354D01*
X109276512Y-95927620D01*
X109346381Y-95927819D01*
X109405051Y-95965761D01*
X109433895Y-96029399D01*
X109430184Y-96081290D01*
X109419025Y-96119699D01*
X109419025Y-96119700D01*
X110400200Y-96119700D01*
X110900200Y-96119700D01*
X111881374Y-96119700D01*
X111839918Y-95977005D01*
X111839918Y-95977004D01*
X111757929Y-95838368D01*
X111757923Y-95838360D01*
X111644039Y-95724476D01*
X111644031Y-95724470D01*
X111505392Y-95642480D01*
X111505389Y-95642479D01*
X111350724Y-95597544D01*
X111350718Y-95597543D01*
X111314590Y-95594700D01*
X110900200Y-95594700D01*
X110900200Y-96119700D01*
X110400200Y-96119700D01*
X110400200Y-95594700D01*
X109985828Y-95594700D01*
X109985806Y-95594701D01*
X109949680Y-95597544D01*
X109899289Y-95612183D01*
X109829419Y-95611982D01*
X109770750Y-95574039D01*
X109741908Y-95510400D01*
X109741589Y-95478255D01*
X109742799Y-95468220D01*
X109760354Y-95407798D01*
X109763200Y-95371635D01*
X109763200Y-95309713D01*
X114049700Y-95309713D01*
X114049700Y-95359700D01*
X115024700Y-95359700D01*
X115524700Y-95359700D01*
X116499699Y-95359700D01*
X116499699Y-95309728D01*
X116499698Y-95309713D01*
X116489205Y-95207002D01*
X116434058Y-95040580D01*
X116434056Y-95040575D01*
X116342015Y-94891354D01*
X116218045Y-94767384D01*
X116068824Y-94675343D01*
X116068819Y-94675341D01*
X115902397Y-94620194D01*
X115902390Y-94620193D01*
X115799686Y-94609700D01*
X115524700Y-94609700D01*
X115524700Y-95359700D01*
X115024700Y-95359700D01*
X115024700Y-94609700D01*
X114749729Y-94609700D01*
X114749712Y-94609701D01*
X114647002Y-94620194D01*
X114480580Y-94675341D01*
X114480575Y-94675343D01*
X114331354Y-94767384D01*
X114207384Y-94891354D01*
X114115343Y-95040575D01*
X114115341Y-95040580D01*
X114060194Y-95207002D01*
X114060193Y-95207009D01*
X114049700Y-95309713D01*
X109763200Y-95309713D01*
X109763199Y-94042766D01*
X109760354Y-94006602D01*
X109715381Y-93851806D01*
X109655555Y-93750644D01*
X109633330Y-93713063D01*
X109633321Y-93713051D01*
X109519348Y-93599078D01*
X109519336Y-93599069D01*
X109380596Y-93517020D01*
X109380589Y-93517017D01*
X109225802Y-93472046D01*
X109225796Y-93472045D01*
X109189635Y-93469200D01*
X108785777Y-93469200D01*
X108785752Y-93469201D01*
X108749601Y-93472046D01*
X108622295Y-93509032D01*
X108553105Y-93509032D01*
X108425802Y-93472046D01*
X108425796Y-93472045D01*
X108389635Y-93469200D01*
X107985777Y-93469200D01*
X107985752Y-93469201D01*
X107949601Y-93472046D01*
X107822295Y-93509032D01*
X107753105Y-93509032D01*
X107625802Y-93472046D01*
X107625796Y-93472045D01*
X107589635Y-93469200D01*
X107185777Y-93469200D01*
X107185752Y-93469201D01*
X107149601Y-93472046D01*
X107022295Y-93509032D01*
X106953105Y-93509032D01*
X106825802Y-93472046D01*
X106825796Y-93472045D01*
X106789635Y-93469200D01*
X106385777Y-93469200D01*
X106385752Y-93469201D01*
X106349601Y-93472046D01*
X106222295Y-93509032D01*
X106153105Y-93509032D01*
X106025802Y-93472046D01*
X106025796Y-93472045D01*
X105989642Y-93469200D01*
X105989635Y-93469200D01*
X105739200Y-93469200D01*
X105672161Y-93449515D01*
X105626406Y-93396711D01*
X105615200Y-93345200D01*
X105615200Y-89687981D01*
X105623844Y-89658540D01*
X105630368Y-89628554D01*
X105634122Y-89623538D01*
X105634885Y-89620942D01*
X105651519Y-89600300D01*
X105736301Y-89515518D01*
X105797624Y-89482033D01*
X105823982Y-89479199D01*
X106460702Y-89479199D01*
X106460708Y-89479199D01*
X106563497Y-89468699D01*
X106730034Y-89413514D01*
X106879356Y-89321412D01*
X107003412Y-89197356D01*
X107069565Y-89090103D01*
X107121513Y-89043379D01*
X107175104Y-89031200D01*
X108380118Y-89031200D01*
X108409558Y-89039844D01*
X108439545Y-89046368D01*
X108444560Y-89050122D01*
X108447157Y-89050885D01*
X108467799Y-89067519D01*
X108485102Y-89084822D01*
X108515126Y-89133497D01*
X108519516Y-89146744D01*
X108529686Y-89177434D01*
X108621788Y-89326756D01*
X108745844Y-89450812D01*
X108895166Y-89542914D01*
X109061703Y-89598099D01*
X109164491Y-89608600D01*
X110214508Y-89608599D01*
X110214516Y-89608598D01*
X110214519Y-89608598D01*
X110295750Y-89600300D01*
X110317297Y-89598099D01*
X110483834Y-89542914D01*
X110633156Y-89450812D01*
X110757212Y-89326756D01*
X110849314Y-89177434D01*
X110904499Y-89010897D01*
X110915000Y-88908109D01*
X110914999Y-88308092D01*
X110914357Y-88301811D01*
X110904499Y-88205303D01*
X110904498Y-88205300D01*
X110849314Y-88038766D01*
X110757212Y-87889444D01*
X110633156Y-87765388D01*
X110629842Y-87763343D01*
X110628046Y-87761348D01*
X110627489Y-87760907D01*
X110627564Y-87760811D01*
X110583118Y-87711397D01*
X110571897Y-87642434D01*
X110599740Y-87578352D01*
X110629848Y-87552265D01*
X110632842Y-87550418D01*
X110756815Y-87426445D01*
X110848856Y-87277224D01*
X110848858Y-87277219D01*
X110904005Y-87110797D01*
X110904006Y-87110790D01*
X110914499Y-87008086D01*
X110914500Y-87008073D01*
X110914500Y-86958100D01*
X108464501Y-86958100D01*
X108464501Y-87008086D01*
X108474994Y-87110797D01*
X108530141Y-87277219D01*
X108530143Y-87277224D01*
X108622184Y-87426445D01*
X108746155Y-87550416D01*
X108751823Y-87554898D01*
X108749825Y-87557424D01*
X108786942Y-87598924D01*
X108797970Y-87667917D01*
X108769947Y-87731921D01*
X108711769Y-87770614D01*
X108674970Y-87776200D01*
X107175104Y-87776200D01*
X107165312Y-87773325D01*
X107155188Y-87774590D01*
X107132355Y-87763647D01*
X107108065Y-87756515D01*
X107099706Y-87748000D01*
X107092181Y-87744394D01*
X107069566Y-87717297D01*
X107057675Y-87698019D01*
X107039356Y-87668320D01*
X107020916Y-87600929D01*
X107039357Y-87538126D01*
X107095055Y-87447826D01*
X107095058Y-87447819D01*
X107150205Y-87281397D01*
X107150206Y-87281390D01*
X107160699Y-87178686D01*
X107160700Y-87178673D01*
X107160700Y-87053700D01*
X106084700Y-87053700D01*
X106017661Y-87034015D01*
X105971906Y-86981211D01*
X105960700Y-86929700D01*
X105960700Y-86803700D01*
X105834700Y-86803700D01*
X105767661Y-86784015D01*
X105721906Y-86731211D01*
X105710700Y-86679700D01*
X105710700Y-86553700D01*
X106210700Y-86553700D01*
X107160699Y-86553700D01*
X107160699Y-86428728D01*
X107160698Y-86428723D01*
X107159559Y-86417570D01*
X107159559Y-86417565D01*
X107158593Y-86408113D01*
X108464500Y-86408113D01*
X108464500Y-86458100D01*
X109439500Y-86458100D01*
X109939500Y-86458100D01*
X110914499Y-86458100D01*
X110914499Y-86408128D01*
X110914498Y-86408113D01*
X110904005Y-86305402D01*
X110848858Y-86138980D01*
X110848856Y-86138975D01*
X110756815Y-85989754D01*
X110632845Y-85865784D01*
X110483624Y-85773743D01*
X110483619Y-85773741D01*
X110317197Y-85718594D01*
X110317190Y-85718593D01*
X110214486Y-85708100D01*
X109939500Y-85708100D01*
X109939500Y-86458100D01*
X109439500Y-86458100D01*
X109439500Y-85708100D01*
X109164529Y-85708100D01*
X109164512Y-85708101D01*
X109061802Y-85718594D01*
X108895380Y-85773741D01*
X108895375Y-85773743D01*
X108746154Y-85865784D01*
X108622184Y-85989754D01*
X108530143Y-86138975D01*
X108530141Y-86138980D01*
X108474994Y-86305402D01*
X108474993Y-86305409D01*
X108464500Y-86408113D01*
X107158593Y-86408113D01*
X107150205Y-86326003D01*
X107095058Y-86159580D01*
X107095056Y-86159575D01*
X107003015Y-86010354D01*
X106879045Y-85886384D01*
X106729824Y-85794343D01*
X106729819Y-85794341D01*
X106563397Y-85739194D01*
X106563390Y-85739193D01*
X106460686Y-85728700D01*
X106210700Y-85728700D01*
X106210700Y-86553700D01*
X105710700Y-86553700D01*
X105710700Y-85728700D01*
X105460729Y-85728700D01*
X105460712Y-85728701D01*
X105358002Y-85739194D01*
X105191580Y-85794341D01*
X105191575Y-85794343D01*
X105042357Y-85886382D01*
X104948734Y-85980005D01*
X104887410Y-86013489D01*
X104817719Y-86008505D01*
X104773372Y-85980004D01*
X104679357Y-85885989D01*
X104679356Y-85885988D01*
X104530034Y-85793886D01*
X104363497Y-85738701D01*
X104363495Y-85738700D01*
X104260710Y-85728200D01*
X103260698Y-85728200D01*
X103260680Y-85728201D01*
X103157903Y-85738700D01*
X103157900Y-85738701D01*
X102991368Y-85793885D01*
X102991363Y-85793887D01*
X102842042Y-85885989D01*
X102717987Y-86010044D01*
X102710801Y-86021696D01*
X102658853Y-86068421D01*
X102605262Y-86080600D01*
X101358244Y-86080600D01*
X101291205Y-86060915D01*
X101252706Y-86021697D01*
X101233003Y-85989754D01*
X101232812Y-85989444D01*
X101108756Y-85865388D01*
X100992832Y-85793886D01*
X100959436Y-85773287D01*
X100959431Y-85773285D01*
X100957962Y-85772798D01*
X100792897Y-85718101D01*
X100792895Y-85718100D01*
X100690110Y-85707600D01*
X99640098Y-85707600D01*
X99640080Y-85707601D01*
X99537303Y-85718100D01*
X99537300Y-85718101D01*
X99370768Y-85773285D01*
X99370763Y-85773287D01*
X99221442Y-85865389D01*
X99097389Y-85989442D01*
X99005287Y-86138763D01*
X99005285Y-86138768D01*
X98998389Y-86159580D01*
X98950101Y-86305303D01*
X98950101Y-86305304D01*
X98950100Y-86305304D01*
X98939600Y-86408083D01*
X98939600Y-87008101D01*
X98939601Y-87008119D01*
X98950100Y-87110896D01*
X98950101Y-87110899D01*
X98996492Y-87250896D01*
X99005286Y-87277434D01*
X99097388Y-87426756D01*
X99221444Y-87550812D01*
X99222101Y-87551217D01*
X99224753Y-87552853D01*
X99226545Y-87554846D01*
X99227111Y-87555293D01*
X99227034Y-87555389D01*
X99271479Y-87604799D01*
X99282703Y-87673761D01*
X99254861Y-87737844D01*
X99224765Y-87763926D01*
X99221760Y-87765779D01*
X99221755Y-87765783D01*
X99097784Y-87889754D01*
X99005743Y-88038975D01*
X99005741Y-88038980D01*
X98950594Y-88205402D01*
X98950593Y-88205409D01*
X98940100Y-88308113D01*
X98940100Y-88358100D01*
X100041100Y-88358100D01*
X100108139Y-88377785D01*
X100153894Y-88430589D01*
X100165100Y-88482100D01*
X100165100Y-88608100D01*
X100291100Y-88608100D01*
X100358139Y-88627785D01*
X100403894Y-88680589D01*
X100415100Y-88732100D01*
X100415100Y-89608099D01*
X100690072Y-89608099D01*
X100690086Y-89608098D01*
X100792797Y-89597605D01*
X100966077Y-89540186D01*
X100966912Y-89542706D01*
X100974294Y-89541582D01*
X100992523Y-89533795D01*
X101008124Y-89536431D01*
X101023769Y-89534050D01*
X101041869Y-89542135D01*
X101061416Y-89545439D01*
X101073116Y-89556092D01*
X101087563Y-89562546D01*
X101098418Y-89579132D01*
X101113077Y-89592480D01*
X101121784Y-89614834D01*
X101125825Y-89621008D01*
X101126943Y-89624936D01*
X101127981Y-89628825D01*
X101149114Y-89735067D01*
X101166363Y-89776708D01*
X101169491Y-89784261D01*
X101169493Y-89784266D01*
X101196414Y-89849260D01*
X101196416Y-89849263D01*
X101206333Y-89864107D01*
X101206338Y-89864112D01*
X101265090Y-89952042D01*
X102531156Y-91218108D01*
X102531160Y-91218111D01*
X102633928Y-91286779D01*
X102633941Y-91286786D01*
X102748128Y-91334083D01*
X102748133Y-91334085D01*
X102748137Y-91334085D01*
X102748138Y-91334086D01*
X102869362Y-91358200D01*
X102869365Y-91358200D01*
X102992971Y-91358200D01*
X103436200Y-91358200D01*
X103503239Y-91377885D01*
X103548994Y-91430689D01*
X103560200Y-91482200D01*
X103560200Y-93648484D01*
X103555849Y-93664385D01*
X103556392Y-93678977D01*
X103542933Y-93711604D01*
X103494433Y-93793615D01*
X103443364Y-93841299D01*
X103374622Y-93853803D01*
X103310033Y-93827158D01*
X103280968Y-93793616D01*
X103255553Y-93750642D01*
X103233326Y-93713057D01*
X103233324Y-93713055D01*
X103233321Y-93713051D01*
X103174019Y-93653749D01*
X103140534Y-93592426D01*
X103137700Y-93566068D01*
X103137700Y-93476024D01*
X103137699Y-93476024D01*
X103087039Y-93490742D01*
X103017169Y-93490542D01*
X102964764Y-93459346D01*
X100800913Y-91295494D01*
X100800908Y-91295490D01*
X100789102Y-91287601D01*
X100789102Y-91287600D01*
X100698129Y-91226815D01*
X100664684Y-91212962D01*
X100583934Y-91179514D01*
X100583926Y-91179512D01*
X100462706Y-91155400D01*
X100462702Y-91155400D01*
X94214944Y-91155400D01*
X94147905Y-91135715D01*
X94109406Y-91096497D01*
X94096393Y-91075400D01*
X94089512Y-91064244D01*
X93965456Y-90940188D01*
X93962142Y-90938143D01*
X93960346Y-90936148D01*
X93959789Y-90935707D01*
X93959864Y-90935611D01*
X93915418Y-90886197D01*
X93904197Y-90817234D01*
X93932040Y-90753152D01*
X93962148Y-90727065D01*
X93965142Y-90725218D01*
X94089115Y-90601245D01*
X94181156Y-90452024D01*
X94181158Y-90452019D01*
X94236305Y-90285597D01*
X94236306Y-90285590D01*
X94246799Y-90182886D01*
X94246800Y-90182873D01*
X94246800Y-90132900D01*
X91796801Y-90132900D01*
X91796801Y-90182886D01*
X91807294Y-90285597D01*
X91862441Y-90452019D01*
X91862443Y-90452024D01*
X91954484Y-90601245D01*
X92078455Y-90725216D01*
X92078459Y-90725219D01*
X92081456Y-90727068D01*
X92083079Y-90728872D01*
X92084123Y-90729698D01*
X92083981Y-90729876D01*
X92128181Y-90779016D01*
X92139402Y-90847979D01*
X92111559Y-90912061D01*
X92081461Y-90938141D01*
X92078149Y-90940183D01*
X92078143Y-90940188D01*
X91954089Y-91064242D01*
X91954087Y-91064245D01*
X91934194Y-91096497D01*
X91926608Y-91103319D01*
X91922369Y-91112603D01*
X91901068Y-91126291D01*
X91882246Y-91143222D01*
X91870609Y-91145866D01*
X91863591Y-91150377D01*
X91828656Y-91155400D01*
X91682081Y-91155400D01*
X91615042Y-91135715D01*
X91594400Y-91119081D01*
X91162980Y-90687661D01*
X91129495Y-90626338D01*
X91134479Y-90556646D01*
X91162980Y-90512299D01*
X91248986Y-90426292D01*
X91248989Y-90426289D01*
X91336594Y-90295179D01*
X91396937Y-90149497D01*
X91427700Y-89994842D01*
X91427700Y-89837158D01*
X91427700Y-89837155D01*
X91427699Y-89837153D01*
X91415676Y-89776708D01*
X91396937Y-89682503D01*
X91396935Y-89682498D01*
X91374037Y-89627216D01*
X91355686Y-89582913D01*
X91796800Y-89582913D01*
X91796800Y-89632900D01*
X92771800Y-89632900D01*
X93271800Y-89632900D01*
X94246799Y-89632900D01*
X94246799Y-89582928D01*
X94246798Y-89582913D01*
X94236305Y-89480202D01*
X94181158Y-89313780D01*
X94181156Y-89313775D01*
X94089115Y-89164554D01*
X93965145Y-89040584D01*
X93815924Y-88948543D01*
X93815919Y-88948541D01*
X93743198Y-88924444D01*
X93693834Y-88908086D01*
X98940101Y-88908086D01*
X98950594Y-89010797D01*
X99005741Y-89177219D01*
X99005743Y-89177224D01*
X99097784Y-89326445D01*
X99221754Y-89450415D01*
X99370975Y-89542456D01*
X99370980Y-89542458D01*
X99537402Y-89597605D01*
X99537409Y-89597606D01*
X99640119Y-89608099D01*
X99915099Y-89608099D01*
X99915100Y-89608098D01*
X99915100Y-88858100D01*
X98940101Y-88858100D01*
X98940101Y-88908086D01*
X93693834Y-88908086D01*
X93649497Y-88893394D01*
X93649490Y-88893393D01*
X93546786Y-88882900D01*
X93271800Y-88882900D01*
X93271800Y-89632900D01*
X92771800Y-89632900D01*
X92771800Y-88882900D01*
X92496829Y-88882900D01*
X92496812Y-88882901D01*
X92394102Y-88893394D01*
X92227680Y-88948541D01*
X92227675Y-88948543D01*
X92078454Y-89040584D01*
X91954484Y-89164554D01*
X91862443Y-89313775D01*
X91862441Y-89313780D01*
X91807294Y-89480202D01*
X91807293Y-89480209D01*
X91796800Y-89582913D01*
X91355686Y-89582913D01*
X91336597Y-89536827D01*
X91336590Y-89536814D01*
X91248989Y-89405711D01*
X91248986Y-89405707D01*
X91137492Y-89294213D01*
X91137488Y-89294210D01*
X91006385Y-89206609D01*
X91006372Y-89206602D01*
X90860701Y-89146264D01*
X90860689Y-89146261D01*
X90706045Y-89115500D01*
X90706042Y-89115500D01*
X90548358Y-89115500D01*
X90542296Y-89116097D01*
X90542028Y-89113378D01*
X90484014Y-89107953D01*
X90442195Y-89080427D01*
X90384457Y-89022689D01*
X90384456Y-89022688D01*
X90235134Y-88930586D01*
X90068597Y-88875401D01*
X90068595Y-88875400D01*
X89965810Y-88864900D01*
X88965798Y-88864900D01*
X88965780Y-88864901D01*
X88863003Y-88875400D01*
X88863000Y-88875401D01*
X88696468Y-88930585D01*
X88696463Y-88930587D01*
X88547142Y-89022689D01*
X88423089Y-89146742D01*
X88330987Y-89296063D01*
X88330985Y-89296068D01*
X88322588Y-89321410D01*
X88275801Y-89462603D01*
X88275801Y-89462604D01*
X88275800Y-89462604D01*
X88265300Y-89565383D01*
X88265300Y-90190401D01*
X88265301Y-90190419D01*
X88275800Y-90293196D01*
X88275801Y-90293199D01*
X88319903Y-90426288D01*
X88330986Y-90459734D01*
X88418270Y-90601245D01*
X88423089Y-90609057D01*
X88516751Y-90702719D01*
X88518898Y-90706652D01*
X88522672Y-90709070D01*
X88535492Y-90737040D01*
X88550236Y-90764042D01*
X88549916Y-90768511D01*
X88551784Y-90772586D01*
X88547446Y-90803044D01*
X88545252Y-90833734D01*
X88542388Y-90838567D01*
X88541934Y-90841758D01*
X88532066Y-90855990D01*
X88522893Y-90871475D01*
X88519942Y-90874889D01*
X88423088Y-90971744D01*
X88390268Y-91024953D01*
X88383769Y-91032475D01*
X88362421Y-91046235D01*
X88343536Y-91063222D01*
X88332002Y-91065842D01*
X88325043Y-91070329D01*
X88312183Y-91070346D01*
X88289946Y-91075400D01*
X87874317Y-91075400D01*
X87826865Y-91065961D01*
X87699401Y-91013164D01*
X87699389Y-91013161D01*
X87544745Y-90982400D01*
X87544742Y-90982400D01*
X87387058Y-90982400D01*
X87387055Y-90982400D01*
X87232410Y-91013161D01*
X87232398Y-91013164D01*
X87086727Y-91073502D01*
X87086714Y-91073509D01*
X86955611Y-91161110D01*
X86955607Y-91161113D01*
X86844113Y-91272607D01*
X86844110Y-91272611D01*
X86756509Y-91403714D01*
X86756502Y-91403727D01*
X86696164Y-91549398D01*
X86696161Y-91549410D01*
X86665400Y-91704053D01*
X86665400Y-91861746D01*
X86696161Y-92016389D01*
X86696164Y-92016401D01*
X86756502Y-92162072D01*
X86756509Y-92162085D01*
X86844110Y-92293188D01*
X86844113Y-92293192D01*
X86955607Y-92404686D01*
X86955611Y-92404689D01*
X87086714Y-92492290D01*
X87086727Y-92492297D01*
X87196093Y-92537597D01*
X87232403Y-92552637D01*
X87387053Y-92583399D01*
X87387056Y-92583400D01*
X87387058Y-92583400D01*
X87544744Y-92583400D01*
X87544745Y-92583399D01*
X87699397Y-92552637D01*
X87845079Y-92492294D01*
X87976189Y-92404689D01*
X88014158Y-92366720D01*
X88041088Y-92352014D01*
X88066905Y-92335423D01*
X88073103Y-92334531D01*
X88075480Y-92333234D01*
X88101840Y-92330400D01*
X88289946Y-92330400D01*
X88356985Y-92350085D01*
X88395484Y-92389303D01*
X88412198Y-92416400D01*
X88423088Y-92434056D01*
X88547144Y-92558112D01*
X88696466Y-92650214D01*
X88753305Y-92669048D01*
X88810748Y-92708818D01*
X88837572Y-92773334D01*
X88838300Y-92786753D01*
X88838300Y-93050907D01*
X88862412Y-93172127D01*
X88862414Y-93172135D01*
X88895862Y-93252884D01*
X88909717Y-93286333D01*
X88947046Y-93342200D01*
X88947048Y-93342202D01*
X88978387Y-93389106D01*
X88978391Y-93389111D01*
X89359589Y-93770308D01*
X89416439Y-93827158D01*
X89446993Y-93857712D01*
X89549760Y-93926379D01*
X89549773Y-93926386D01*
X89663960Y-93973683D01*
X89663965Y-93973685D01*
X89663969Y-93973685D01*
X89663970Y-93973686D01*
X89785194Y-93997800D01*
X89785197Y-93997800D01*
X100088200Y-93997800D01*
X100155239Y-94017485D01*
X100200994Y-94070289D01*
X100212200Y-94121800D01*
X100212200Y-95371622D01*
X100212201Y-95371647D01*
X100215045Y-95407795D01*
X100229615Y-95457944D01*
X100229415Y-95527813D01*
X100191472Y-95586483D01*
X100127834Y-95615326D01*
X100075943Y-95611614D01*
X100025802Y-95597046D01*
X100025796Y-95597045D01*
X99989635Y-95594200D01*
X98660777Y-95594200D01*
X98660752Y-95594201D01*
X98624601Y-95597046D01*
X98469810Y-95642017D01*
X98469803Y-95642020D01*
X98331063Y-95724069D01*
X98331051Y-95724078D01*
X98217078Y-95838051D01*
X98217069Y-95838063D01*
X98135020Y-95976803D01*
X98135017Y-95976810D01*
X98090046Y-96131597D01*
X98090045Y-96131603D01*
X98087200Y-96167757D01*
X98087200Y-96571622D01*
X98087201Y-96571647D01*
X98090046Y-96607798D01*
X98127032Y-96735104D01*
X98127032Y-96804294D01*
X98090046Y-96931597D01*
X98090045Y-96931603D01*
X98087200Y-96967757D01*
X98087200Y-97371622D01*
X98087201Y-97371647D01*
X98090046Y-97407798D01*
X98127032Y-97535104D01*
X98127032Y-97604294D01*
X98090046Y-97731597D01*
X98090045Y-97731603D01*
X98087200Y-97767757D01*
X98087200Y-98171622D01*
X98087201Y-98171647D01*
X98090046Y-98207798D01*
X98127032Y-98335104D01*
X98127032Y-98404294D01*
X98090046Y-98531597D01*
X98090045Y-98531603D01*
X98087200Y-98567757D01*
X98087200Y-98673902D01*
X98067515Y-98740941D01*
X98014711Y-98786696D01*
X97945553Y-98796640D01*
X97894309Y-98777004D01*
X97864385Y-98757009D01*
X97864372Y-98757002D01*
X97718701Y-98696664D01*
X97718689Y-98696661D01*
X97564045Y-98665900D01*
X97564042Y-98665900D01*
X97406358Y-98665900D01*
X97406355Y-98665900D01*
X97251710Y-98696661D01*
X97251698Y-98696664D01*
X97106027Y-98757002D01*
X97106014Y-98757009D01*
X96974911Y-98844610D01*
X96974907Y-98844613D01*
X96863413Y-98956107D01*
X96863410Y-98956111D01*
X96775809Y-99087214D01*
X96775802Y-99087227D01*
X96715464Y-99232898D01*
X96715461Y-99232910D01*
X96684700Y-99387553D01*
X96684700Y-99387558D01*
X96684700Y-99545242D01*
X96684700Y-99545244D01*
X96684699Y-99545244D01*
X96694400Y-99594008D01*
X96688173Y-99663600D01*
X96645310Y-99718777D01*
X96579421Y-99742022D01*
X96572783Y-99742200D01*
X95280981Y-99742200D01*
X95213942Y-99722515D01*
X95193300Y-99705881D01*
X94442818Y-98955399D01*
X94409333Y-98894076D01*
X94406499Y-98867718D01*
X94406499Y-98280998D01*
X94406498Y-98280981D01*
X94395999Y-98178203D01*
X94395998Y-98178200D01*
X94363138Y-98079036D01*
X94340814Y-98011666D01*
X94248712Y-97862344D01*
X94124656Y-97738288D01*
X93975334Y-97646186D01*
X93808797Y-97591001D01*
X93808795Y-97591000D01*
X93706010Y-97580500D01*
X93105998Y-97580500D01*
X93105980Y-97580501D01*
X93003203Y-97591000D01*
X93003200Y-97591001D01*
X92836668Y-97646185D01*
X92836663Y-97646187D01*
X92687342Y-97738289D01*
X92563288Y-97862343D01*
X92563283Y-97862349D01*
X92561241Y-97865661D01*
X92559247Y-97867453D01*
X92558807Y-97868011D01*
X92558711Y-97867935D01*
X92509291Y-97912383D01*
X92440328Y-97923602D01*
X92376247Y-97895755D01*
X92350168Y-97865656D01*
X92348319Y-97862659D01*
X92348316Y-97862655D01*
X92224345Y-97738684D01*
X92075124Y-97646643D01*
X92075119Y-97646641D01*
X91908697Y-97591494D01*
X91908690Y-97591493D01*
X91805986Y-97581000D01*
X91756000Y-97581000D01*
X91756000Y-100030999D01*
X91805972Y-100030999D01*
X91805986Y-100030998D01*
X91908697Y-100020505D01*
X92075119Y-99965358D01*
X92075124Y-99965356D01*
X92224345Y-99873315D01*
X92348318Y-99749342D01*
X92350165Y-99746348D01*
X92351969Y-99744724D01*
X92352798Y-99743677D01*
X92352976Y-99743818D01*
X92402110Y-99699621D01*
X92471073Y-99688396D01*
X92535156Y-99716236D01*
X92561243Y-99746341D01*
X92563288Y-99749656D01*
X92687344Y-99873712D01*
X92836666Y-99965814D01*
X93003203Y-100020999D01*
X93105991Y-100031500D01*
X93692718Y-100031499D01*
X93759757Y-100051183D01*
X93780399Y-100067818D01*
X94482289Y-100769708D01*
X94569692Y-100857111D01*
X94569694Y-100857113D01*
X94569696Y-100857114D01*
X94672456Y-100925776D01*
X94672458Y-100925777D01*
X94672467Y-100925783D01*
X94697472Y-100936140D01*
X94719771Y-100945377D01*
X94761954Y-100962849D01*
X94786666Y-100973086D01*
X94907892Y-100997199D01*
X94907896Y-100997200D01*
X94907897Y-100997200D01*
X98266485Y-100997200D01*
X98282386Y-101001550D01*
X98296979Y-101001008D01*
X98329606Y-101014468D01*
X98411616Y-101062968D01*
X98459299Y-101114037D01*
X98471803Y-101182778D01*
X98445158Y-101247368D01*
X98411616Y-101276432D01*
X98329606Y-101324932D01*
X98266485Y-101342200D01*
X84471081Y-101342200D01*
X84404042Y-101322515D01*
X84383400Y-101305881D01*
X82408505Y-99330986D01*
X90506001Y-99330986D01*
X90516494Y-99433697D01*
X90571641Y-99600119D01*
X90571643Y-99600124D01*
X90663684Y-99749345D01*
X90787654Y-99873315D01*
X90936875Y-99965356D01*
X90936880Y-99965358D01*
X91103302Y-100020505D01*
X91103309Y-100020506D01*
X91206019Y-100030999D01*
X91255999Y-100030998D01*
X91256000Y-100030998D01*
X91256000Y-99056000D01*
X90506001Y-99056000D01*
X90506001Y-99330986D01*
X82408505Y-99330986D01*
X82399519Y-99322000D01*
X82384815Y-99295072D01*
X82368223Y-99269254D01*
X82367331Y-99263053D01*
X82366034Y-99260677D01*
X82363200Y-99234319D01*
X82363200Y-98281013D01*
X90506000Y-98281013D01*
X90506000Y-98556000D01*
X91256000Y-98556000D01*
X91256000Y-97581000D01*
X91255999Y-97580999D01*
X91206029Y-97581000D01*
X91206011Y-97581001D01*
X91103302Y-97591494D01*
X90936880Y-97646641D01*
X90936875Y-97646643D01*
X90787654Y-97738684D01*
X90663684Y-97862654D01*
X90571643Y-98011875D01*
X90571641Y-98011880D01*
X90516494Y-98178302D01*
X90516493Y-98178309D01*
X90506000Y-98281013D01*
X82363200Y-98281013D01*
X82363200Y-95565653D01*
X82382885Y-95498614D01*
X82435689Y-95452859D01*
X82448182Y-95447952D01*
X82505034Y-95429114D01*
X82654356Y-95337012D01*
X82778412Y-95212956D01*
X82870514Y-95063634D01*
X82925699Y-94897097D01*
X82936200Y-94794309D01*
X82936199Y-94169292D01*
X82925699Y-94066503D01*
X82870514Y-93899966D01*
X82778412Y-93750644D01*
X82684749Y-93656981D01*
X82651264Y-93595658D01*
X82656248Y-93525966D01*
X82684749Y-93481619D01*
X82716853Y-93449515D01*
X82778412Y-93387956D01*
X82870514Y-93238634D01*
X82925699Y-93072097D01*
X82936200Y-92969309D01*
X82936199Y-92344292D01*
X82935069Y-92333234D01*
X82925699Y-92241503D01*
X82925698Y-92241500D01*
X82910361Y-92195216D01*
X82870514Y-92074966D01*
X82778412Y-91925644D01*
X82654356Y-91801588D01*
X82505034Y-91709486D01*
X82338497Y-91654301D01*
X82338495Y-91654300D01*
X82235716Y-91643800D01*
X82235709Y-91643800D01*
X81623298Y-91643800D01*
X81556259Y-91624115D01*
X81535617Y-91607481D01*
X80785119Y-90856983D01*
X80751634Y-90795660D01*
X80748800Y-90769302D01*
X80748800Y-87381799D01*
X80768485Y-87314760D01*
X80821289Y-87269005D01*
X80872800Y-87257799D01*
X81246171Y-87257799D01*
X81246172Y-87257799D01*
X81305783Y-87251391D01*
X81305789Y-87251388D01*
X81313325Y-87249608D01*
X81313621Y-87250861D01*
X81375363Y-87246442D01*
X81388955Y-87250432D01*
X81390927Y-87250898D01*
X81450455Y-87257299D01*
X81450472Y-87257300D01*
X81498300Y-87257300D01*
X81498300Y-87219994D01*
X81517985Y-87152955D01*
X81547990Y-87120726D01*
X81555846Y-87114846D01*
X81642096Y-86999631D01*
X81692391Y-86864783D01*
X81698800Y-86805173D01*
X81698799Y-84459428D01*
X81692391Y-84399817D01*
X81686104Y-84382962D01*
X81642097Y-84264971D01*
X81642093Y-84264964D01*
X81555847Y-84149755D01*
X81555846Y-84149754D01*
X81547985Y-84143869D01*
X81545249Y-84140214D01*
X81541097Y-84138318D01*
X81524505Y-84112501D01*
X81506116Y-84087933D01*
X81505101Y-84082306D01*
X81503323Y-84079540D01*
X81498300Y-84044605D01*
X81498300Y-84007300D01*
X81998300Y-84007300D01*
X81998300Y-87257300D01*
X82046128Y-87257300D01*
X82046144Y-87257299D01*
X82105672Y-87250898D01*
X82105679Y-87250896D01*
X82240386Y-87200654D01*
X82240393Y-87200650D01*
X82355487Y-87114490D01*
X82355490Y-87114487D01*
X82441650Y-86999393D01*
X82441655Y-86999384D01*
X82468567Y-86927229D01*
X82510437Y-86871295D01*
X82575901Y-86846877D01*
X82644175Y-86861728D01*
X82685067Y-86897676D01*
X82768190Y-87012085D01*
X82768194Y-87012090D01*
X82918513Y-87162409D01*
X83090479Y-87287348D01*
X83090481Y-87287349D01*
X83090484Y-87287351D01*
X83279888Y-87383857D01*
X83482057Y-87449546D01*
X83692013Y-87482800D01*
X83692014Y-87482800D01*
X83904586Y-87482800D01*
X83904587Y-87482800D01*
X84114543Y-87449546D01*
X84316712Y-87383857D01*
X84506116Y-87287351D01*
X84556290Y-87250898D01*
X84678086Y-87162409D01*
X84678088Y-87162406D01*
X84678092Y-87162404D01*
X84828404Y-87012092D01*
X84828406Y-87012088D01*
X84828409Y-87012086D01*
X84953348Y-86840120D01*
X84953347Y-86840120D01*
X84953351Y-86840116D01*
X85049857Y-86650712D01*
X85115546Y-86448543D01*
X85148800Y-86238587D01*
X85148800Y-85026013D01*
X85115546Y-84816057D01*
X85049857Y-84613888D01*
X84953351Y-84424484D01*
X84953349Y-84424481D01*
X84953348Y-84424479D01*
X84828409Y-84252513D01*
X84678086Y-84102190D01*
X84506120Y-83977251D01*
X84316714Y-83880744D01*
X84316713Y-83880743D01*
X84316712Y-83880743D01*
X84114543Y-83815054D01*
X84114541Y-83815053D01*
X84114540Y-83815053D01*
X83953257Y-83789508D01*
X83904587Y-83781800D01*
X83692013Y-83781800D01*
X83643342Y-83789508D01*
X83482060Y-83815053D01*
X83279885Y-83880744D01*
X83090479Y-83977251D01*
X82918513Y-84102190D01*
X82768194Y-84252509D01*
X82685067Y-84366924D01*
X82629737Y-84409589D01*
X82560123Y-84415568D01*
X82498328Y-84382962D01*
X82468567Y-84337371D01*
X82441654Y-84265213D01*
X82441650Y-84265206D01*
X82355490Y-84150112D01*
X82355487Y-84150109D01*
X82240393Y-84063949D01*
X82240386Y-84063945D01*
X82105679Y-84013703D01*
X82105672Y-84013701D01*
X82046144Y-84007300D01*
X81998300Y-84007300D01*
X81498300Y-84007300D01*
X81450455Y-84007300D01*
X81390924Y-84013701D01*
X81383373Y-84015486D01*
X81382984Y-84013842D01*
X81322648Y-84018153D01*
X81305914Y-84013239D01*
X81305791Y-84013210D01*
X81305783Y-84013209D01*
X81246173Y-84006800D01*
X81246163Y-84006800D01*
X80650429Y-84006800D01*
X80650423Y-84006801D01*
X80590820Y-84013208D01*
X80583274Y-84014992D01*
X80582928Y-84013530D01*
X80521922Y-84017884D01*
X80506900Y-84013472D01*
X80505782Y-84013208D01*
X80446182Y-84006801D01*
X80446173Y-84006800D01*
X80446163Y-84006800D01*
X79850429Y-84006800D01*
X79850423Y-84006801D01*
X79790820Y-84013208D01*
X79783274Y-84014992D01*
X79782928Y-84013530D01*
X79721922Y-84017884D01*
X79706900Y-84013472D01*
X79705782Y-84013208D01*
X79646182Y-84006801D01*
X79646173Y-84006800D01*
X79646163Y-84006800D01*
X79050429Y-84006800D01*
X79050423Y-84006801D01*
X78990820Y-84013208D01*
X78983274Y-84014992D01*
X78982928Y-84013530D01*
X78921922Y-84017884D01*
X78906900Y-84013472D01*
X78905782Y-84013208D01*
X78846182Y-84006801D01*
X78846173Y-84006800D01*
X78846163Y-84006800D01*
X78250429Y-84006800D01*
X78250423Y-84006801D01*
X78190816Y-84013208D01*
X78055971Y-84063502D01*
X78055964Y-84063506D01*
X77940755Y-84149752D01*
X77940752Y-84149755D01*
X77854506Y-84264964D01*
X77854502Y-84264971D01*
X77827680Y-84336887D01*
X77785809Y-84392821D01*
X77720345Y-84417238D01*
X77652072Y-84402387D01*
X77611180Y-84366439D01*
X77528409Y-84252514D01*
X77528405Y-84252509D01*
X77378086Y-84102190D01*
X77206120Y-83977251D01*
X77016714Y-83880744D01*
X77016713Y-83880743D01*
X77016712Y-83880743D01*
X76814543Y-83815054D01*
X76814541Y-83815053D01*
X76814540Y-83815053D01*
X76653257Y-83789508D01*
X76604587Y-83781800D01*
X76392013Y-83781800D01*
X76343342Y-83789508D01*
X76182060Y-83815053D01*
X75979885Y-83880744D01*
X75790479Y-83977251D01*
X75618513Y-84102190D01*
X75468190Y-84252513D01*
X75343251Y-84424479D01*
X75246744Y-84613885D01*
X75181053Y-84816060D01*
X75147800Y-85026013D01*
X75147800Y-86238586D01*
X75177915Y-86428728D01*
X75181054Y-86448543D01*
X75184159Y-86458100D01*
X75246744Y-86650714D01*
X75343251Y-86840120D01*
X75468190Y-87012086D01*
X75618513Y-87162409D01*
X75790479Y-87287348D01*
X75790481Y-87287349D01*
X75790484Y-87287351D01*
X75979888Y-87383857D01*
X76182057Y-87449546D01*
X76392013Y-87482800D01*
X76392014Y-87482800D01*
X76604586Y-87482800D01*
X76604587Y-87482800D01*
X76814543Y-87449546D01*
X77016712Y-87383857D01*
X77206116Y-87287351D01*
X77256290Y-87250898D01*
X77378086Y-87162409D01*
X77378088Y-87162406D01*
X77378092Y-87162404D01*
X77528404Y-87012092D01*
X77611180Y-86898158D01*
X77612206Y-86897367D01*
X77612667Y-86896155D01*
X77639779Y-86876105D01*
X77666509Y-86855494D01*
X77667802Y-86855382D01*
X77668845Y-86854612D01*
X77702507Y-86852402D01*
X77736122Y-86849515D01*
X77737268Y-86850120D01*
X77738565Y-86850035D01*
X77768099Y-86866387D01*
X77797918Y-86882120D01*
X77798925Y-86883454D01*
X77799691Y-86883878D01*
X77802128Y-86887695D01*
X77820676Y-86912256D01*
X77824708Y-86919744D01*
X77854504Y-86999631D01*
X77901601Y-87062544D01*
X77905978Y-87070672D01*
X77911371Y-87096183D01*
X77920484Y-87120614D01*
X77920800Y-87129461D01*
X77920800Y-90071119D01*
X77901115Y-90138158D01*
X77884481Y-90158800D01*
X72604992Y-95438289D01*
X72567168Y-95476113D01*
X72517586Y-95525694D01*
X72517585Y-95525696D01*
X72448824Y-95628603D01*
X72448710Y-95628967D01*
X72401614Y-95742665D01*
X72382640Y-95838057D01*
X72381353Y-95844526D01*
X72381348Y-95844543D01*
X72377500Y-95863892D01*
X72377500Y-98257669D01*
X72357815Y-98324708D01*
X72305011Y-98370463D01*
X72266103Y-98381027D01*
X72227202Y-98385001D01*
X72227200Y-98385001D01*
X72060668Y-98440185D01*
X72060663Y-98440187D01*
X71911342Y-98532289D01*
X71787289Y-98656342D01*
X71695187Y-98805663D01*
X71695185Y-98805668D01*
X71669609Y-98882852D01*
X71640001Y-98972203D01*
X71640001Y-98972204D01*
X71640000Y-98972204D01*
X71629500Y-99074983D01*
X71629500Y-99925001D01*
X71629501Y-99925019D01*
X71640000Y-100027796D01*
X71640001Y-100027799D01*
X71686379Y-100167757D01*
X71695186Y-100194334D01*
X71787288Y-100343656D01*
X71911344Y-100467712D01*
X72060666Y-100559814D01*
X72227203Y-100614999D01*
X72329991Y-100625500D01*
X73680008Y-100625499D01*
X73782797Y-100614999D01*
X73949334Y-100559814D01*
X74098656Y-100467712D01*
X74222712Y-100343656D01*
X74314814Y-100194334D01*
X74369999Y-100027797D01*
X74380500Y-99925009D01*
X74380499Y-99074992D01*
X74374229Y-99013617D01*
X74369999Y-98972203D01*
X74369998Y-98972200D01*
X74343434Y-98892035D01*
X74314814Y-98805666D01*
X74222712Y-98656344D01*
X74098656Y-98532288D01*
X73949334Y-98440186D01*
X73782797Y-98385001D01*
X73782795Y-98385000D01*
X73743895Y-98381026D01*
X73679204Y-98354628D01*
X73639054Y-98297447D01*
X73632500Y-98257668D01*
X73632500Y-96236980D01*
X73652185Y-96169941D01*
X73668814Y-96149304D01*
X77105821Y-92712296D01*
X77167142Y-92678813D01*
X77236834Y-92683797D01*
X77292767Y-92725669D01*
X77317184Y-92791133D01*
X77317500Y-92799978D01*
X77317500Y-92969300D01*
X77317501Y-92969319D01*
X77328000Y-93072096D01*
X77328001Y-93072099D01*
X77383185Y-93238631D01*
X77383187Y-93238636D01*
X77475289Y-93387957D01*
X77568951Y-93481619D01*
X77602436Y-93542942D01*
X77597452Y-93612634D01*
X77568951Y-93656981D01*
X77475289Y-93750642D01*
X77383187Y-93899963D01*
X77383185Y-93899968D01*
X77374432Y-93926383D01*
X77328001Y-94066503D01*
X77328001Y-94066504D01*
X77328000Y-94066504D01*
X77317500Y-94169283D01*
X77317500Y-94794301D01*
X77317501Y-94794319D01*
X77328000Y-94897096D01*
X77328001Y-94897099D01*
X77375545Y-95040575D01*
X77383186Y-95063634D01*
X77475288Y-95212956D01*
X77599344Y-95337012D01*
X77748666Y-95429114D01*
X77805505Y-95447948D01*
X77862948Y-95487718D01*
X77889772Y-95552234D01*
X77890500Y-95565653D01*
X77890500Y-98770807D01*
X77914612Y-98892028D01*
X77914613Y-98892032D01*
X77914614Y-98892035D01*
X77947586Y-98971634D01*
X77961917Y-99006233D01*
X78026730Y-99103232D01*
X78028605Y-99106039D01*
X78028606Y-99106040D01*
X78030589Y-99109009D01*
X81652100Y-102730519D01*
X81685585Y-102791842D01*
X81680601Y-102861534D01*
X81638729Y-102917467D01*
X81573265Y-102941884D01*
X81564419Y-102942200D01*
X74585981Y-102942200D01*
X74556540Y-102933555D01*
X74526554Y-102927032D01*
X74521538Y-102923277D01*
X74518942Y-102922515D01*
X74498300Y-102905881D01*
X74416319Y-102823900D01*
X74382834Y-102762577D01*
X74380905Y-102728196D01*
X74380339Y-102728168D01*
X74380497Y-102725032D01*
X74380500Y-102725009D01*
X74380499Y-101874992D01*
X74372552Y-101797200D01*
X74369999Y-101772203D01*
X74369998Y-101772200D01*
X74331861Y-101657111D01*
X74314814Y-101605666D01*
X74222712Y-101456344D01*
X74098656Y-101332288D01*
X73949334Y-101240186D01*
X73782797Y-101185001D01*
X73782795Y-101185000D01*
X73680010Y-101174500D01*
X72329998Y-101174500D01*
X72329981Y-101174501D01*
X72227203Y-101185000D01*
X72227200Y-101185001D01*
X72060668Y-101240185D01*
X72060663Y-101240187D01*
X71911342Y-101332289D01*
X71787289Y-101456342D01*
X71695187Y-101605663D01*
X71695186Y-101605666D01*
X71640001Y-101772203D01*
X71640001Y-101772204D01*
X71640000Y-101772204D01*
X71629500Y-101874983D01*
X71629500Y-102725001D01*
X71629501Y-102725019D01*
X71640000Y-102827796D01*
X71640001Y-102827799D01*
X71695185Y-102994331D01*
X71695187Y-102994336D01*
X71703491Y-103007799D01*
X71787288Y-103143656D01*
X71911344Y-103267712D01*
X72060666Y-103359814D01*
X72227203Y-103414999D01*
X72329991Y-103425500D01*
X73191718Y-103425499D01*
X73258757Y-103445183D01*
X73279399Y-103461818D01*
X73787289Y-103969708D01*
X73874692Y-104057111D01*
X73874694Y-104057113D01*
X73874696Y-104057114D01*
X73912080Y-104082093D01*
X73977467Y-104125783D01*
X74010915Y-104139637D01*
X74091665Y-104173086D01*
X74212892Y-104197199D01*
X74212896Y-104197200D01*
X74212897Y-104197200D01*
X74336503Y-104197200D01*
X94651400Y-104197200D01*
X94718439Y-104216885D01*
X94764194Y-104269689D01*
X94775400Y-104321200D01*
X94775400Y-110099807D01*
X94799512Y-110221028D01*
X94799515Y-110221038D01*
X94812878Y-110253299D01*
X94820473Y-110271633D01*
X94846817Y-110335233D01*
X94872993Y-110374408D01*
X94876900Y-110380255D01*
X94876901Y-110380257D01*
X94915490Y-110438010D01*
X94915491Y-110438011D01*
X95280189Y-110802708D01*
X95359425Y-110881944D01*
X95367594Y-110890113D01*
X95367596Y-110890114D01*
X95470356Y-110958776D01*
X95470358Y-110958777D01*
X95470367Y-110958783D01*
X95493093Y-110968196D01*
X95517671Y-110978377D01*
X95559854Y-110995849D01*
X95584566Y-111006086D01*
X95679142Y-111024898D01*
X95705792Y-111030199D01*
X95705796Y-111030200D01*
X95705797Y-111030200D01*
X99275062Y-111030200D01*
X99342101Y-111049885D01*
X99387856Y-111102689D01*
X99392764Y-111115188D01*
X99419886Y-111197034D01*
X99511988Y-111346356D01*
X99636044Y-111470412D01*
X99785366Y-111562514D01*
X99951903Y-111617699D01*
X100054691Y-111628200D01*
X100654708Y-111628199D01*
X100654716Y-111628198D01*
X100654719Y-111628198D01*
X100711002Y-111622448D01*
X100757497Y-111617699D01*
X100924034Y-111562514D01*
X101073356Y-111470412D01*
X101197412Y-111346356D01*
X101199452Y-111343047D01*
X101201445Y-111341255D01*
X101201893Y-111340689D01*
X101201989Y-111340765D01*
X101251394Y-111296323D01*
X101320356Y-111285095D01*
X101384440Y-111312934D01*
X101410529Y-111343039D01*
X101412381Y-111346041D01*
X101412383Y-111346044D01*
X101536354Y-111470015D01*
X101685575Y-111562056D01*
X101685580Y-111562058D01*
X101852002Y-111617205D01*
X101852009Y-111617206D01*
X101954719Y-111627699D01*
X102504700Y-111627699D01*
X102554672Y-111627699D01*
X102554686Y-111627698D01*
X102657397Y-111617205D01*
X102823819Y-111562058D01*
X102823824Y-111562056D01*
X102973045Y-111470015D01*
X103097015Y-111346045D01*
X103189056Y-111196824D01*
X103189058Y-111196819D01*
X103244205Y-111030397D01*
X103244206Y-111030390D01*
X103254699Y-110927686D01*
X106908701Y-110927686D01*
X106919194Y-111030397D01*
X106974341Y-111196819D01*
X106974343Y-111196824D01*
X107066384Y-111346045D01*
X107190354Y-111470015D01*
X107339575Y-111562056D01*
X107339580Y-111562058D01*
X107506002Y-111617205D01*
X107506009Y-111617206D01*
X107608719Y-111627699D01*
X107658699Y-111627698D01*
X107658700Y-111627698D01*
X107658700Y-110652700D01*
X106908701Y-110652700D01*
X106908701Y-110927686D01*
X103254699Y-110927686D01*
X103254700Y-110927673D01*
X103254700Y-110652700D01*
X102504700Y-110652700D01*
X102504700Y-111627699D01*
X101954719Y-111627699D01*
X102004699Y-111627698D01*
X102004700Y-111627698D01*
X102004700Y-110152700D01*
X102504700Y-110152700D01*
X103254699Y-110152700D01*
X103254699Y-109877729D01*
X103254698Y-109877713D01*
X106908700Y-109877713D01*
X106908700Y-110152700D01*
X107658700Y-110152700D01*
X107658700Y-109177700D01*
X107658699Y-109177699D01*
X107608729Y-109177700D01*
X107608711Y-109177701D01*
X107506002Y-109188194D01*
X107339580Y-109243341D01*
X107339575Y-109243343D01*
X107190354Y-109335384D01*
X107066384Y-109459354D01*
X106974343Y-109608575D01*
X106974341Y-109608580D01*
X106919194Y-109775002D01*
X106919193Y-109775009D01*
X106908700Y-109877713D01*
X103254698Y-109877713D01*
X103254698Y-109877712D01*
X103244205Y-109775002D01*
X103189058Y-109608580D01*
X103189056Y-109608575D01*
X103097015Y-109459354D01*
X102973045Y-109335384D01*
X102823824Y-109243343D01*
X102823819Y-109243341D01*
X102657397Y-109188194D01*
X102657390Y-109188193D01*
X102554686Y-109177700D01*
X102504700Y-109177700D01*
X102504700Y-110152700D01*
X102004700Y-110152700D01*
X102004700Y-109177700D01*
X102004699Y-109177699D01*
X101954729Y-109177700D01*
X101954711Y-109177701D01*
X101852002Y-109188194D01*
X101685580Y-109243341D01*
X101685575Y-109243343D01*
X101536354Y-109335384D01*
X101412383Y-109459355D01*
X101412379Y-109459360D01*
X101410526Y-109462365D01*
X101408718Y-109463990D01*
X101407902Y-109465023D01*
X101407725Y-109464883D01*
X101358574Y-109509085D01*
X101289611Y-109520301D01*
X101225531Y-109492452D01*
X101199453Y-109462353D01*
X101199437Y-109462328D01*
X101197412Y-109459044D01*
X101073356Y-109334988D01*
X101073355Y-109334987D01*
X101041102Y-109315093D01*
X100994378Y-109263144D01*
X100982200Y-109209555D01*
X100982200Y-107394199D01*
X101001885Y-107327160D01*
X101054689Y-107281405D01*
X101106200Y-107270199D01*
X101189622Y-107270199D01*
X101189634Y-107270199D01*
X101225798Y-107267354D01*
X101354001Y-107230107D01*
X101423190Y-107230107D01*
X101537699Y-107263374D01*
X101537700Y-107263374D01*
X101537700Y-107173331D01*
X101544129Y-107151436D01*
X101546013Y-107128693D01*
X101554750Y-107115263D01*
X101557385Y-107106292D01*
X101563275Y-107097908D01*
X101568239Y-107091429D01*
X101633326Y-107026343D01*
X101684757Y-106939376D01*
X101689275Y-106933481D01*
X101711718Y-106917071D01*
X101732036Y-106898100D01*
X101739528Y-106896737D01*
X101745676Y-106892242D01*
X101773429Y-106890570D01*
X101800778Y-106885596D01*
X101807817Y-106888499D01*
X101815420Y-106888042D01*
X101839670Y-106901640D01*
X101865367Y-106912241D01*
X101871786Y-106919649D01*
X101876362Y-106922215D01*
X101880094Y-106929236D01*
X101894430Y-106945780D01*
X101942074Y-107026343D01*
X102001382Y-107085651D01*
X102034866Y-107146972D01*
X102037700Y-107173331D01*
X102037700Y-107263374D01*
X102152208Y-107230107D01*
X102221398Y-107230107D01*
X102349597Y-107267353D01*
X102349600Y-107267353D01*
X102349602Y-107267354D01*
X102385765Y-107270200D01*
X102789634Y-107270199D01*
X102825798Y-107267354D01*
X102953106Y-107230367D01*
X103022294Y-107230367D01*
X103149602Y-107267354D01*
X103185765Y-107270200D01*
X103589634Y-107270199D01*
X103625798Y-107267354D01*
X103753106Y-107230367D01*
X103822294Y-107230367D01*
X103949602Y-107267354D01*
X103985765Y-107270200D01*
X104389634Y-107270199D01*
X104425798Y-107267354D01*
X104553106Y-107230367D01*
X104622294Y-107230367D01*
X104749602Y-107267354D01*
X104785765Y-107270200D01*
X105189634Y-107270199D01*
X105225798Y-107267354D01*
X105353106Y-107230367D01*
X105422294Y-107230367D01*
X105549602Y-107267354D01*
X105585765Y-107270200D01*
X105989634Y-107270199D01*
X106025798Y-107267354D01*
X106153106Y-107230367D01*
X106222294Y-107230367D01*
X106349602Y-107267354D01*
X106385765Y-107270200D01*
X106789634Y-107270199D01*
X106825798Y-107267354D01*
X106953106Y-107230367D01*
X107022294Y-107230367D01*
X107149602Y-107267354D01*
X107185765Y-107270200D01*
X107589634Y-107270199D01*
X107625798Y-107267354D01*
X107754001Y-107230107D01*
X107823190Y-107230107D01*
X107937699Y-107263374D01*
X107937700Y-107263374D01*
X107937700Y-107173331D01*
X107944129Y-107151436D01*
X107946013Y-107128693D01*
X107954750Y-107115263D01*
X107957385Y-107106292D01*
X107963275Y-107097908D01*
X107968239Y-107091429D01*
X108033326Y-107026343D01*
X108084757Y-106939376D01*
X108089275Y-106933481D01*
X108111718Y-106917071D01*
X108132036Y-106898100D01*
X108139528Y-106896737D01*
X108145676Y-106892242D01*
X108173429Y-106890570D01*
X108200778Y-106885596D01*
X108207817Y-106888499D01*
X108215420Y-106888042D01*
X108239670Y-106901640D01*
X108265367Y-106912241D01*
X108271786Y-106919649D01*
X108276362Y-106922215D01*
X108280094Y-106929236D01*
X108294430Y-106945780D01*
X108342074Y-107026343D01*
X108401382Y-107085651D01*
X108434866Y-107146972D01*
X108437700Y-107173331D01*
X108437700Y-107263374D01*
X108552208Y-107230107D01*
X108621398Y-107230107D01*
X108749597Y-107267353D01*
X108749600Y-107267353D01*
X108749602Y-107267354D01*
X108785765Y-107270200D01*
X109057201Y-107270199D01*
X109124239Y-107289883D01*
X109169994Y-107342687D01*
X109181200Y-107394199D01*
X109181200Y-109209555D01*
X109161515Y-109276594D01*
X109122298Y-109315093D01*
X109090044Y-109334987D01*
X108965988Y-109459043D01*
X108965983Y-109459049D01*
X108963941Y-109462361D01*
X108961947Y-109464153D01*
X108961507Y-109464711D01*
X108961411Y-109464635D01*
X108911991Y-109509083D01*
X108843028Y-109520302D01*
X108778947Y-109492455D01*
X108752868Y-109462356D01*
X108751019Y-109459359D01*
X108751016Y-109459355D01*
X108627045Y-109335384D01*
X108477824Y-109243343D01*
X108477819Y-109243341D01*
X108311397Y-109188194D01*
X108311390Y-109188193D01*
X108208686Y-109177700D01*
X108158700Y-109177700D01*
X108158700Y-111627699D01*
X108208672Y-111627699D01*
X108208686Y-111627698D01*
X108311397Y-111617205D01*
X108477819Y-111562058D01*
X108477824Y-111562056D01*
X108627045Y-111470015D01*
X108751018Y-111346042D01*
X108752865Y-111343048D01*
X108754669Y-111341424D01*
X108755498Y-111340377D01*
X108755676Y-111340518D01*
X108804810Y-111296321D01*
X108873773Y-111285096D01*
X108937856Y-111312936D01*
X108963942Y-111343039D01*
X108965988Y-111346356D01*
X109090044Y-111470412D01*
X109239366Y-111562514D01*
X109405903Y-111617699D01*
X109508691Y-111628200D01*
X110108708Y-111628199D01*
X110108716Y-111628198D01*
X110108719Y-111628198D01*
X110165002Y-111622448D01*
X110211497Y-111617699D01*
X110378034Y-111562514D01*
X110527356Y-111470412D01*
X110651412Y-111346356D01*
X110743514Y-111197034D01*
X110798699Y-111030497D01*
X110809200Y-110927709D01*
X110809199Y-110340979D01*
X110828883Y-110273941D01*
X110845513Y-110253304D01*
X112145811Y-108953008D01*
X112160978Y-108930309D01*
X112214483Y-108850233D01*
X112242317Y-108783035D01*
X112250580Y-108763086D01*
X113871101Y-108763086D01*
X113881594Y-108865797D01*
X113936741Y-109032219D01*
X113936743Y-109032224D01*
X114028784Y-109181445D01*
X114152754Y-109305415D01*
X114301975Y-109397456D01*
X114301980Y-109397458D01*
X114468402Y-109452605D01*
X114468409Y-109452606D01*
X114571119Y-109463099D01*
X114821099Y-109463099D01*
X115321100Y-109463099D01*
X115571072Y-109463099D01*
X115571086Y-109463098D01*
X115673797Y-109452605D01*
X115840219Y-109397458D01*
X115840224Y-109397456D01*
X115989445Y-109305415D01*
X116113415Y-109181445D01*
X116205456Y-109032224D01*
X116205458Y-109032219D01*
X116260605Y-108865797D01*
X116260606Y-108865790D01*
X116271099Y-108763086D01*
X116271100Y-108763073D01*
X116271100Y-108700600D01*
X115321100Y-108700600D01*
X115321100Y-109463099D01*
X114821099Y-109463099D01*
X114821100Y-109463098D01*
X114821100Y-108700600D01*
X113871101Y-108700600D01*
X113871101Y-108763086D01*
X112250580Y-108763086D01*
X112261786Y-108736034D01*
X112269720Y-108696144D01*
X112272910Y-108688441D01*
X112273003Y-108683283D01*
X112288234Y-108651447D01*
X112324439Y-108597264D01*
X112335744Y-108580346D01*
X112350476Y-108558296D01*
X112367794Y-108532379D01*
X112428137Y-108386697D01*
X112458900Y-108232042D01*
X112458900Y-108074358D01*
X112458900Y-108074355D01*
X112458899Y-108074353D01*
X112428137Y-107919703D01*
X112407125Y-107868975D01*
X112367797Y-107774027D01*
X112367790Y-107774014D01*
X112280189Y-107642911D01*
X112280186Y-107642907D01*
X112168692Y-107531413D01*
X112168688Y-107531410D01*
X112037585Y-107443809D01*
X112037572Y-107443802D01*
X111891901Y-107383464D01*
X111891889Y-107383461D01*
X111737245Y-107352700D01*
X111737242Y-107352700D01*
X111579558Y-107352700D01*
X111579555Y-107352700D01*
X111424910Y-107383461D01*
X111424898Y-107383464D01*
X111279227Y-107443802D01*
X111279214Y-107443809D01*
X111148111Y-107531410D01*
X111148107Y-107531413D01*
X111036613Y-107642907D01*
X111036610Y-107642911D01*
X110949009Y-107774014D01*
X110949002Y-107774027D01*
X110888664Y-107919698D01*
X110888661Y-107919710D01*
X110857900Y-108074353D01*
X110857900Y-108232046D01*
X110883798Y-108362245D01*
X110877571Y-108431837D01*
X110849862Y-108474117D01*
X110647881Y-108676099D01*
X110586558Y-108709584D01*
X110516867Y-108704600D01*
X110460933Y-108662729D01*
X110436516Y-108597264D01*
X110436200Y-108588418D01*
X110436200Y-106791394D01*
X110412086Y-106670170D01*
X110412085Y-106670169D01*
X110412085Y-106670165D01*
X110384427Y-106603392D01*
X110364786Y-106555973D01*
X110364779Y-106555960D01*
X110296112Y-106453193D01*
X110296111Y-106453192D01*
X110208708Y-106365789D01*
X109799518Y-105956599D01*
X109766033Y-105895276D01*
X109763199Y-105868918D01*
X109763199Y-105367777D01*
X109763198Y-105367752D01*
X109760354Y-105331602D01*
X109757154Y-105320589D01*
X109745785Y-105281455D01*
X109745984Y-105211587D01*
X109783926Y-105152917D01*
X109847564Y-105124073D01*
X109899455Y-105127784D01*
X109949602Y-105142354D01*
X109985765Y-105145200D01*
X111314634Y-105145199D01*
X111350798Y-105142354D01*
X111505594Y-105097381D01*
X111581077Y-105052740D01*
X111645795Y-105014468D01*
X111708915Y-104997200D01*
X114319600Y-104997200D01*
X114386639Y-105016885D01*
X114432394Y-105069689D01*
X114443600Y-105121200D01*
X114443600Y-105541745D01*
X114423915Y-105608784D01*
X114371111Y-105654539D01*
X114358605Y-105659450D01*
X114301770Y-105678283D01*
X114301769Y-105678284D01*
X114152442Y-105770389D01*
X114028389Y-105894442D01*
X113936287Y-106043763D01*
X113936286Y-106043766D01*
X113881101Y-106210303D01*
X113881101Y-106210304D01*
X113881100Y-106210304D01*
X113870600Y-106313083D01*
X113870600Y-106938101D01*
X113870601Y-106938119D01*
X113881100Y-107040896D01*
X113881101Y-107040899D01*
X113916251Y-107146972D01*
X113936286Y-107207434D01*
X114025886Y-107352700D01*
X114028389Y-107356757D01*
X114122404Y-107450772D01*
X114155889Y-107512095D01*
X114150905Y-107581787D01*
X114122405Y-107626134D01*
X114028782Y-107719757D01*
X113936743Y-107868975D01*
X113936741Y-107868980D01*
X113881594Y-108035402D01*
X113881593Y-108035409D01*
X113871100Y-108138113D01*
X113871100Y-108200600D01*
X116271099Y-108200600D01*
X116271099Y-108138128D01*
X116271098Y-108138113D01*
X116260605Y-108035402D01*
X116205458Y-107868980D01*
X116205456Y-107868975D01*
X116113415Y-107719754D01*
X116019795Y-107626134D01*
X115986310Y-107564811D01*
X115991294Y-107495119D01*
X116019791Y-107450776D01*
X116113812Y-107356756D01*
X116205914Y-107207434D01*
X116261099Y-107040897D01*
X116271600Y-106938109D01*
X116271599Y-106313092D01*
X116261099Y-106210303D01*
X116205914Y-106043766D01*
X116113812Y-105894444D01*
X115989756Y-105770388D01*
X115840434Y-105678286D01*
X115840432Y-105678285D01*
X115840430Y-105678284D01*
X115840429Y-105678283D01*
X115783595Y-105659450D01*
X115726150Y-105619677D01*
X115699328Y-105555161D01*
X115698600Y-105541745D01*
X115698600Y-104967681D01*
X115718285Y-104900642D01*
X115729235Y-104887055D01*
X115728946Y-104886818D01*
X115732809Y-104882110D01*
X115732811Y-104882108D01*
X115801483Y-104779333D01*
X115808303Y-104762869D01*
X115848786Y-104665135D01*
X115872900Y-104543904D01*
X115872900Y-104420297D01*
X115848786Y-104299066D01*
X115801483Y-104184868D01*
X115793611Y-104173087D01*
X115732812Y-104082093D01*
X115732806Y-104082086D01*
X115533009Y-103882289D01*
X115513149Y-103869020D01*
X115510026Y-103866933D01*
X115430233Y-103813617D01*
X115396784Y-103799762D01*
X115388998Y-103796537D01*
X115388995Y-103796535D01*
X115316035Y-103766314D01*
X115316027Y-103766312D01*
X115194807Y-103742200D01*
X115194803Y-103742200D01*
X112012200Y-103742200D01*
X111945161Y-103722515D01*
X111899406Y-103669711D01*
X111888200Y-103618200D01*
X111888199Y-103367777D01*
X111888198Y-103367752D01*
X111885354Y-103331602D01*
X111866791Y-103267710D01*
X111848367Y-103204293D01*
X111848367Y-103135106D01*
X111885354Y-103007798D01*
X111888200Y-102971635D01*
X111888199Y-102721198D01*
X111907883Y-102654161D01*
X111960687Y-102608406D01*
X112012199Y-102597200D01*
X118631900Y-102597200D01*
X118698939Y-102616885D01*
X118744694Y-102669689D01*
X118755867Y-102718382D01*
X118803110Y-104797045D01*
X119052070Y-115751320D01*
X119033914Y-115818789D01*
X118982163Y-115865732D01*
X118926102Y-115878121D01*
X69973404Y-115088561D01*
X69906691Y-115067798D01*
X69861794Y-115014263D01*
X69851538Y-114958819D01*
X69883472Y-114272244D01*
X70886100Y-114272244D01*
X70892501Y-114331772D01*
X70892503Y-114331779D01*
X70942745Y-114466486D01*
X70942749Y-114466493D01*
X71028909Y-114581587D01*
X71028912Y-114581590D01*
X71144006Y-114667750D01*
X71144013Y-114667754D01*
X71278720Y-114717996D01*
X71278727Y-114717998D01*
X71338255Y-114724399D01*
X71338272Y-114724400D01*
X72036100Y-114724400D01*
X72536100Y-114724400D01*
X73233928Y-114724400D01*
X73233944Y-114724399D01*
X73293472Y-114717998D01*
X73293479Y-114717996D01*
X73428186Y-114667754D01*
X73428193Y-114667750D01*
X73543287Y-114581590D01*
X73543290Y-114581587D01*
X73629450Y-114466493D01*
X73629454Y-114466486D01*
X73679696Y-114331779D01*
X73679698Y-114331772D01*
X73686099Y-114272244D01*
X73686100Y-114272227D01*
X73686100Y-113924400D01*
X72536100Y-113924400D01*
X72536100Y-114724400D01*
X72036100Y-114724400D01*
X72036100Y-113924400D01*
X70886100Y-113924400D01*
X70886100Y-114272244D01*
X69883472Y-114272244D01*
X69939085Y-113076555D01*
X70886100Y-113076555D01*
X70886100Y-113424400D01*
X72036100Y-113424400D01*
X72536100Y-113424400D01*
X73686100Y-113424400D01*
X73686100Y-113076564D01*
X73686097Y-113076535D01*
X77085600Y-113076535D01*
X77085600Y-114272270D01*
X77085601Y-114272276D01*
X77092008Y-114331883D01*
X77142302Y-114466728D01*
X77142306Y-114466735D01*
X77228552Y-114581944D01*
X77228555Y-114581947D01*
X77343764Y-114668193D01*
X77343771Y-114668197D01*
X77478617Y-114718491D01*
X77478616Y-114718491D01*
X77485544Y-114719235D01*
X77538227Y-114724900D01*
X79433972Y-114724899D01*
X79493583Y-114718491D01*
X79628431Y-114668196D01*
X79743646Y-114581946D01*
X79829896Y-114466731D01*
X79880191Y-114331883D01*
X79886600Y-114272273D01*
X79886599Y-113076528D01*
X79880191Y-113016917D01*
X79829984Y-112882306D01*
X79829897Y-112882071D01*
X79829893Y-112882064D01*
X79743647Y-112766855D01*
X79743644Y-112766852D01*
X79628435Y-112680606D01*
X79628428Y-112680602D01*
X79493582Y-112630308D01*
X79493583Y-112630308D01*
X79433983Y-112623901D01*
X79433981Y-112623900D01*
X79433973Y-112623900D01*
X79433964Y-112623900D01*
X77538229Y-112623900D01*
X77538223Y-112623901D01*
X77478616Y-112630308D01*
X77343771Y-112680602D01*
X77343764Y-112680606D01*
X77228555Y-112766852D01*
X77228552Y-112766855D01*
X77142306Y-112882064D01*
X77142302Y-112882071D01*
X77092008Y-113016917D01*
X77085601Y-113076516D01*
X77085601Y-113076523D01*
X77085600Y-113076535D01*
X73686097Y-113076535D01*
X73679698Y-113017027D01*
X73679696Y-113017020D01*
X73629454Y-112882313D01*
X73629450Y-112882306D01*
X73543290Y-112767212D01*
X73543287Y-112767209D01*
X73428193Y-112681049D01*
X73428186Y-112681045D01*
X73293479Y-112630803D01*
X73293472Y-112630801D01*
X73233944Y-112624400D01*
X72536100Y-112624400D01*
X72536100Y-113424400D01*
X72036100Y-113424400D01*
X72036100Y-112624400D01*
X71338255Y-112624400D01*
X71278727Y-112630801D01*
X71278720Y-112630803D01*
X71144013Y-112681045D01*
X71144006Y-112681049D01*
X71028912Y-112767209D01*
X71028909Y-112767212D01*
X70942749Y-112882306D01*
X70942745Y-112882313D01*
X70892503Y-113017020D01*
X70892501Y-113017027D01*
X70886100Y-113076555D01*
X69939085Y-113076555D01*
X70111179Y-109376535D01*
X70885600Y-109376535D01*
X70885600Y-110572270D01*
X70885601Y-110572276D01*
X70892008Y-110631883D01*
X70942302Y-110766728D01*
X70942306Y-110766735D01*
X71028552Y-110881944D01*
X71028555Y-110881947D01*
X71143764Y-110968193D01*
X71143771Y-110968197D01*
X71278617Y-111018491D01*
X71278616Y-111018491D01*
X71285544Y-111019235D01*
X71338227Y-111024900D01*
X73233972Y-111024899D01*
X73293583Y-111018491D01*
X73428431Y-110968196D01*
X73543646Y-110881946D01*
X73629896Y-110766731D01*
X73680191Y-110631883D01*
X73686600Y-110572273D01*
X73686599Y-109376535D01*
X77085600Y-109376535D01*
X77085600Y-110572270D01*
X77085601Y-110572276D01*
X77092008Y-110631883D01*
X77142302Y-110766728D01*
X77142306Y-110766735D01*
X77228552Y-110881944D01*
X77228555Y-110881947D01*
X77343764Y-110968193D01*
X77343771Y-110968197D01*
X77478617Y-111018491D01*
X77478616Y-111018491D01*
X77485544Y-111019235D01*
X77538227Y-111024900D01*
X79433972Y-111024899D01*
X79493583Y-111018491D01*
X79628431Y-110968196D01*
X79743646Y-110881946D01*
X79829896Y-110766731D01*
X79861287Y-110682568D01*
X79903158Y-110626634D01*
X79968622Y-110602216D01*
X79977469Y-110601900D01*
X81290459Y-110601900D01*
X81357498Y-110621585D01*
X81378140Y-110638219D01*
X81399707Y-110659786D01*
X81399711Y-110659789D01*
X81530814Y-110747390D01*
X81530827Y-110747397D01*
X81664362Y-110802708D01*
X81676503Y-110807737D01*
X81831153Y-110838499D01*
X81831156Y-110838500D01*
X81831158Y-110838500D01*
X81988844Y-110838500D01*
X81988845Y-110838499D01*
X82143497Y-110807737D01*
X82289179Y-110747394D01*
X82420289Y-110659789D01*
X82531789Y-110548289D01*
X82619394Y-110417179D01*
X82679737Y-110271497D01*
X82710500Y-110116842D01*
X82710500Y-109959158D01*
X82710500Y-109959155D01*
X82710499Y-109959153D01*
X82679737Y-109804503D01*
X82679735Y-109804498D01*
X82619397Y-109658827D01*
X82619390Y-109658814D01*
X82531789Y-109527711D01*
X82531786Y-109527707D01*
X82420292Y-109416213D01*
X82420288Y-109416210D01*
X82289185Y-109328609D01*
X82289172Y-109328602D01*
X82143501Y-109268264D01*
X82143489Y-109268261D01*
X81988845Y-109237500D01*
X81988842Y-109237500D01*
X81831158Y-109237500D01*
X81831155Y-109237500D01*
X81676510Y-109268261D01*
X81676498Y-109268264D01*
X81530828Y-109328602D01*
X81525447Y-109331479D01*
X81524269Y-109329275D01*
X81468033Y-109346880D01*
X81465827Y-109346900D01*
X79977469Y-109346900D01*
X79910430Y-109327215D01*
X79864675Y-109274411D01*
X79861287Y-109266232D01*
X79829898Y-109182073D01*
X79829893Y-109182064D01*
X79743647Y-109066855D01*
X79743644Y-109066852D01*
X79628435Y-108980606D01*
X79628428Y-108980602D01*
X79493582Y-108930308D01*
X79493583Y-108930308D01*
X79433983Y-108923901D01*
X79433981Y-108923900D01*
X79433973Y-108923900D01*
X79433964Y-108923900D01*
X77538229Y-108923900D01*
X77538223Y-108923901D01*
X77478616Y-108930308D01*
X77343771Y-108980602D01*
X77343764Y-108980606D01*
X77228555Y-109066852D01*
X77228552Y-109066855D01*
X77142306Y-109182064D01*
X77142302Y-109182071D01*
X77092008Y-109316917D01*
X77085601Y-109376516D01*
X77085600Y-109376535D01*
X73686599Y-109376535D01*
X73686599Y-109376528D01*
X73680191Y-109316917D01*
X73664337Y-109274411D01*
X73629897Y-109182071D01*
X73629893Y-109182064D01*
X73543647Y-109066855D01*
X73543644Y-109066852D01*
X73428435Y-108980606D01*
X73428428Y-108980602D01*
X73293582Y-108930308D01*
X73293583Y-108930308D01*
X73233983Y-108923901D01*
X73233981Y-108923900D01*
X73233973Y-108923900D01*
X73233964Y-108923900D01*
X71338229Y-108923900D01*
X71338223Y-108923901D01*
X71278616Y-108930308D01*
X71143771Y-108980602D01*
X71143764Y-108980606D01*
X71028555Y-109066852D01*
X71028552Y-109066855D01*
X70942306Y-109182064D01*
X70942302Y-109182071D01*
X70892008Y-109316917D01*
X70885601Y-109376516D01*
X70885600Y-109376535D01*
X70111179Y-109376535D01*
X70831020Y-93899963D01*
X71427501Y-81075639D01*
X71450279Y-81009586D01*
X71505152Y-80966334D01*
X71551367Y-80957400D01*
X75023800Y-80957400D01*
X75090839Y-80977085D01*
G37*
%TD.AperFunction*%
%TA.AperFunction,Conductor*%
G36*
X103953739Y-88423385D02*
G01*
X103999494Y-88476189D01*
X104010700Y-88527700D01*
X104010700Y-89478699D01*
X104236200Y-89478699D01*
X104303239Y-89498384D01*
X104348994Y-89551188D01*
X104360200Y-89602699D01*
X104360200Y-89979200D01*
X104340515Y-90046239D01*
X104287711Y-90091994D01*
X104236200Y-90103200D01*
X103242449Y-90103200D01*
X103175410Y-90083515D01*
X103154768Y-90066881D01*
X102416319Y-89328432D01*
X102382834Y-89267109D01*
X102380000Y-89240751D01*
X102380000Y-89072834D01*
X102399685Y-89005795D01*
X102452489Y-88960040D01*
X102521647Y-88950096D01*
X102585203Y-88979121D01*
X102621706Y-89033830D01*
X102626341Y-89047819D01*
X102626343Y-89047824D01*
X102718384Y-89197045D01*
X102842354Y-89321015D01*
X102991575Y-89413056D01*
X102991580Y-89413058D01*
X103158002Y-89468205D01*
X103158009Y-89468206D01*
X103260719Y-89478699D01*
X103510699Y-89478699D01*
X103510700Y-89478698D01*
X103510700Y-88527700D01*
X103530385Y-88460661D01*
X103583189Y-88414906D01*
X103634700Y-88403700D01*
X103886700Y-88403700D01*
X103953739Y-88423385D01*
G37*
%TD.AperFunction*%
%TD*%
M02*
